<?xml version="1.0" encoding="utf-8"?>
<!-- Generator: Adobe Illustrator 24.1.2, SVG Export Plug-In . SVG Version: 6.00 Build 0)  -->
<svg version="1.1" id="Layer_1" xmlns="http://www.w3.org/2000/svg" xmlns:xlink="http://www.w3.org/1999/xlink" x="0px" y="0px"
	 viewBox="0 0 419.53 595.28" style="enable-background:new 0 0 419.53 595.28;" xml:space="preserve">
<style type="text/css">
	.st0{opacity:0.83;clip-path:url(#SVGID_2_);fill:none;stroke:#353434;stroke-width:0.5;stroke-miterlimit:10;}
	.st1{clip-path:url(#SVGID_4_);fill:#040405;}
	.st2{clip-path:url(#SVGID_4_);fill:none;stroke:#747676;stroke-width:0.7208;stroke-miterlimit:10;}
	.st3{clip-path:url(#SVGID_6_);fill:none;stroke:#747676;stroke-width:0.7208;stroke-miterlimit:10;}
	.st4{clip-path:url(#SVGID_8_);fill:none;stroke:#747676;stroke-width:0.7208;stroke-miterlimit:10;}
	.st5{clip-path:url(#SVGID_10_);fill:none;stroke:#747676;stroke-width:0.7208;stroke-miterlimit:10;}
	.st6{clip-path:url(#SVGID_12_);fill:#040405;}
	.st7{clip-path:url(#SVGID_12_);fill:none;stroke:#747676;stroke-width:0.7208;stroke-miterlimit:10;}
	.st8{clip-path:url(#SVGID_14_);fill:none;stroke:#747676;stroke-width:0.7208;stroke-miterlimit:10;}
	.st9{clip-path:url(#SVGID_16_);fill:none;stroke:#747676;stroke-width:0.7208;stroke-miterlimit:10;}
	.st10{clip-path:url(#SVGID_18_);fill:none;stroke:#747676;stroke-width:0.7208;stroke-miterlimit:10;}
	.st11{clip-path:url(#SVGID_20_);fill:#040405;}
	.st12{clip-path:url(#SVGID_20_);fill:none;stroke:#747676;stroke-width:0.7208;stroke-miterlimit:10;}
	.st13{clip-path:url(#SVGID_22_);fill:none;stroke:#747676;stroke-width:0.7208;stroke-miterlimit:10;}
	.st14{clip-path:url(#SVGID_24_);fill:none;stroke:#747676;stroke-width:0.7208;stroke-miterlimit:10;}
	.st15{clip-path:url(#SVGID_26_);fill:none;stroke:#747676;stroke-width:0.7208;stroke-miterlimit:10;}
	.st16{clip-path:url(#SVGID_28_);fill:#040405;}
	.st17{clip-path:url(#SVGID_28_);fill:none;stroke:#747676;stroke-width:0.7208;stroke-miterlimit:10;}
	.st18{clip-path:url(#SVGID_30_);fill:none;stroke:#747676;stroke-width:0.7208;stroke-miterlimit:10;}
	.st19{clip-path:url(#SVGID_32_);fill:none;stroke:#747676;stroke-width:0.7208;stroke-miterlimit:10;}
	.st20{fill:none;stroke:#2E2E2D;stroke-width:0.6;stroke-miterlimit:10;}
	.st21{fill:none;stroke:#747676;stroke-width:0.7208;stroke-miterlimit:10;}
</style>
<g>
	<defs>
		<rect id="SVGID_1_" x="-25.39" y="-5.67" width="475.44" height="615.76"/>
	</defs>
	<clipPath id="SVGID_2_">
		<use xlink:href="#SVGID_1_"  style="overflow:visible;"/>
	</clipPath>
	<line class="st0" x1="37.15" y1="79.64" x2="380.83" y2="79.64"/>
	<line class="st0" x1="37.15" y1="213.54" x2="380.83" y2="213.54"/>
	<line class="st0" x1="37.15" y1="344.08" x2="380.83" y2="344.08"/>
	<line class="st0" x1="37.15" y1="474.15" x2="380.83" y2="474.15"/>
</g>
<g>
	<defs>
		<rect id="SVGID_3_" x="-31.18" y="-14.44" width="475.44" height="615.76"/>
	</defs>
	<clipPath id="SVGID_4_">
		<use xlink:href="#SVGID_3_"  style="overflow:visible;"/>
	</clipPath>
	<path class="st1" d="M236.79,35.13v-2.2v-0.76v-1.91h0.86v4.87H236.79z M232.01,32.93v-0.67l4.5-5.55h0.96l-4.4,5.55l-0.48-0.1h6.7
		v0.76H232.01z"/>
	<polygon class="st1" points="245.88,35.13 243.1,26.72 243.96,26.72 246.64,34.65 246.17,34.65 248.94,26.72 249.71,26.72 
		252.38,34.65 252,34.65 254.68,26.72 255.54,26.72 252.67,35.13 251.72,35.13 249.13,27.67 249.42,27.67 246.84,35.13 	"/>
	<path class="st1" d="M259.17,35.23c-0.67,0-1.24-0.19-1.72-0.48c-0.57-0.29-0.96-0.67-1.24-1.15c-0.29-0.48-0.38-0.96-0.38-1.62
		c0-0.57,0.1-1.15,0.38-1.62c0.29-0.48,0.67-0.86,1.15-1.15c0.48-0.29,0.96-0.38,1.53-0.38c0.57,0,1.15,0.1,1.63,0.38
		c0.38,0.29,0.76,0.58,1.05,1.15c0.29,0.48,0.38,0.96,0.38,1.62v0.1c0,0.1,0,0.1,0,0.19h-5.45v-0.67h4.98l-0.29,0.29
		c0-0.48-0.1-0.86-0.29-1.24c-0.19-0.38-0.48-0.67-0.86-0.86c-0.29-0.19-0.67-0.29-1.15-0.29c-0.38,0-0.76,0.1-1.15,0.29
		c-0.38,0.19-0.57,0.48-0.76,0.86c-0.19,0.38-0.29,0.76-0.29,1.24v0.1c0,0.48,0.1,0.96,0.29,1.34c0.19,0.29,0.48,0.57,0.86,0.86
		c0.38,0.19,0.86,0.29,1.34,0.29c0.38,0,0.76-0.1,1.06-0.19c0.38-0.19,0.67-0.38,0.86-0.67l0.48,0.57
		c-0.29,0.29-0.67,0.57-1.05,0.76C260.14,35.13,259.65,35.23,259.17,35.23z"/>
	<path class="st1" d="M266.35,35.23c-0.67,0-1.25-0.19-1.73-0.48c-0.48-0.29-0.86-0.67-1.15-1.15c-0.29-0.48-0.38-0.96-0.38-1.62
		c0-0.57,0.1-1.15,0.38-1.62c0.29-0.48,0.67-0.86,1.05-1.15c0.48-0.29,1.06-0.38,1.63-0.38c0.57,0,1.15,0.1,1.53,0.38
		c0.48,0.29,0.86,0.58,1.15,1.15c0.19,0.48,0.38,0.96,0.38,1.62v0.1c0,0.1,0,0.1,0,0.19h-5.55v-0.67h5.07l-0.38,0.29
		c0-0.48-0.1-0.86-0.29-1.24c-0.19-0.38-0.38-0.67-0.76-0.86c-0.29-0.19-0.67-0.29-1.15-0.29c-0.48,0-0.86,0.1-1.15,0.29
		c-0.38,0.19-0.67,0.48-0.86,0.86c-0.19,0.38-0.29,0.76-0.29,1.24v0.1c0,0.48,0.1,0.96,0.38,1.34c0.19,0.29,0.48,0.57,0.86,0.86
		c0.39,0.19,0.77,0.29,1.34,0.29c0.38,0,0.67-0.1,1.05-0.19c0.29-0.19,0.57-0.38,0.86-0.67l0.48,0.57
		c-0.29,0.29-0.67,0.57-1.05,0.76C267.31,35.13,266.93,35.23,266.35,35.23z"/>
	<path class="st1" d="M275.83,35.13l-2.59-3.25l0.48-0.67l3.16,3.92H275.83z M270.95,35.13v-8.89h0.86v8.89H270.95z M271.62,33.51
		v-1.05l3.92-3.64h1.05l-2.78,2.68l-0.48,0.38L271.62,33.51z"/>
	<path class="st1" d="M287.69,31.31h-5.45v-0.86h5.45V31.31z M282.33,35.13h-0.86v-8.42h0.86V35.13z M287.59,26.72h0.86v8.42h-0.86
		V26.72z"/>
	<path class="st1" d="M292.85,35.23c-0.48,0-0.96-0.1-1.24-0.29c-0.38-0.1-0.67-0.38-0.77-0.67c-0.19-0.19-0.29-0.57-0.29-0.96
		c0-0.29,0-0.57,0.19-0.86c0.19-0.29,0.39-0.48,0.77-0.67c0.38-0.1,0.86-0.19,1.43-0.19h2.2v0.57h-2.2c-0.57,0-0.96,0.19-1.24,0.38
		c-0.19,0.19-0.38,0.48-0.38,0.76c0,0.38,0.19,0.67,0.48,0.86c0.29,0.19,0.67,0.38,1.15,0.38s0.86-0.19,1.24-0.38
		c0.38-0.19,0.57-0.48,0.76-0.96l0.19,0.57c-0.19,0.48-0.48,0.76-0.86,1.05C293.91,35.04,293.43,35.23,292.85,35.23z M294.96,35.13
		V33.7v-0.19v-2.29c0-0.57-0.19-0.96-0.48-1.24c-0.29-0.29-0.67-0.48-1.34-0.48c-0.38,0-0.76,0.1-1.15,0.19
		c-0.38,0.19-0.67,0.38-0.96,0.57l-0.39-0.67c0.39-0.19,0.77-0.48,1.15-0.58c0.48-0.19,0.96-0.19,1.43-0.19
		c0.86,0,1.43,0.19,1.91,0.58c0.48,0.38,0.67,1.05,0.67,1.82v3.92H294.96z"/>
	<path class="st1" d="M301.27,34.46c0.48,0,0.87-0.1,1.25-0.29c0.38-0.29,0.67-0.57,0.86-0.86c0.19-0.38,0.29-0.86,0.29-1.34
		c0-0.48-0.1-0.96-0.29-1.24c-0.19-0.38-0.48-0.67-0.86-0.86c-0.38-0.29-0.76-0.38-1.25-0.38c-0.38,0-0.76,0.1-1.15,0.38
		c-0.38,0.19-0.67,0.48-0.86,0.86c-0.19,0.29-0.29,0.76-0.29,1.24c0,0.48,0.1,0.96,0.29,1.34c0.19,0.29,0.48,0.57,0.86,0.86
		C300.5,34.37,300.89,34.46,301.27,34.46z M298.12,35.13v-8.89h0.86v4.5l-0.1,1.24l0.1,1.24v1.91H298.12z M301.36,35.23
		c-0.57,0-1.05-0.19-1.43-0.38c-0.48-0.29-0.86-0.67-1.05-1.15c-0.29-0.48-0.38-1.05-0.38-1.72c0-0.67,0.1-1.24,0.38-1.72
		c0.19-0.48,0.57-0.86,1.05-1.15c0.38-0.19,0.86-0.29,1.43-0.29c0.58,0,1.15,0.1,1.63,0.38c0.48,0.29,0.86,0.58,1.15,1.15
		c0.19,0.38,0.38,0.96,0.38,1.62c0,0.67-0.1,1.15-0.38,1.72c-0.29,0.48-0.67,0.86-1.15,1.05C302.52,35.04,301.94,35.23,301.36,35.23
		z"/>
	<path class="st1" d="M306.73,27.48c-0.2,0-0.39-0.1-0.48-0.19c-0.1-0.1-0.19-0.29-0.19-0.48c0-0.1,0.1-0.29,0.19-0.38
		c0.1-0.1,0.29-0.19,0.48-0.19c0.1,0,0.29,0.1,0.38,0.19c0.1,0.1,0.19,0.19,0.19,0.38c0,0.19,0,0.38-0.19,0.48
		C307.02,27.38,306.92,27.48,306.73,27.48z M306.24,35.13v-6.31h0.87v6.31H306.24z"/>
	<path class="st1" d="M308.54,29.59v-0.77h3.83v0.77H308.54z M311.51,35.23c-0.67,0-1.05-0.19-1.43-0.48
		c-0.29-0.38-0.48-0.76-0.48-1.43v-5.84h0.86v5.84c0,0.38,0.1,0.67,0.29,0.86c0.19,0.19,0.48,0.29,0.86,0.29
		c0.39,0,0.67-0.1,0.87-0.29l0.38,0.57c-0.19,0.19-0.38,0.29-0.67,0.38C311.99,35.13,311.7,35.23,311.51,35.23z"/>
	<polygon class="st1" points="319.26,35.13 319.26,27.48 316.39,27.48 316.39,26.72 323.18,26.72 323.18,27.48 320.21,27.48 
		320.21,35.13 	"/>
	<path class="st1" d="M324.23,35.13v-6.31H325v1.73l-0.1-0.29c0.19-0.48,0.48-0.86,0.96-1.06c0.38-0.29,0.86-0.38,1.53-0.38v0.77
		h-0.1h-0.1c-0.67,0-1.24,0.19-1.53,0.57c-0.38,0.48-0.57,1.05-0.57,1.72v3.25H324.23z"/>
	<path class="st1" d="M330.26,35.23c-0.48,0-0.96-0.1-1.24-0.29c-0.38-0.1-0.67-0.38-0.77-0.67c-0.19-0.19-0.29-0.57-0.29-0.96
		c0-0.29,0-0.57,0.19-0.86s0.39-0.48,0.77-0.67c0.38-0.1,0.86-0.19,1.43-0.19h2.2v0.57h-2.2c-0.57,0-0.96,0.19-1.24,0.38
		c-0.19,0.19-0.38,0.48-0.38,0.76c0,0.38,0.19,0.67,0.48,0.86c0.29,0.19,0.67,0.38,1.15,0.38s0.86-0.19,1.24-0.38
		c0.38-0.19,0.57-0.48,0.76-0.96l0.19,0.57c-0.19,0.48-0.48,0.76-0.86,1.05C331.31,35.04,330.83,35.23,330.26,35.23z M332.36,35.13
		V33.7v-0.19v-2.29c0-0.57-0.19-0.96-0.48-1.24c-0.29-0.29-0.67-0.48-1.34-0.48c-0.38,0-0.76,0.1-1.15,0.19
		c-0.38,0.19-0.67,0.38-0.96,0.57l-0.39-0.67c0.39-0.19,0.77-0.48,1.15-0.58c0.48-0.19,0.96-0.19,1.43-0.19
		c0.86,0,1.43,0.19,1.91,0.58c0.48,0.38,0.67,1.05,0.67,1.82v3.92H332.36z"/>
	<path class="st1" d="M338.11,35.23c-0.58,0-1.15-0.19-1.63-0.48s-0.86-0.67-1.15-1.15c-0.29-0.48-0.48-0.96-0.48-1.62
		c0-0.67,0.19-1.15,0.48-1.62c0.29-0.48,0.67-0.86,1.15-1.15c0.48-0.29,1.05-0.38,1.63-0.38c0.57,0,1.05,0.1,1.53,0.29
		c0.38,0.2,0.76,0.48,0.96,0.96l-0.57,0.38c-0.29-0.29-0.48-0.57-0.86-0.67c-0.29-0.19-0.67-0.29-1.05-0.29
		c-0.38,0-0.87,0.1-1.15,0.38c-0.38,0.19-0.67,0.48-0.86,0.86c-0.19,0.29-0.38,0.76-0.38,1.24c0,0.48,0.19,0.96,0.38,1.34
		c0.19,0.29,0.48,0.57,0.86,0.86c0.29,0.19,0.77,0.29,1.15,0.29c0.38,0,0.76-0.1,1.05-0.29c0.38-0.1,0.57-0.38,0.86-0.67l0.57,0.48
		c-0.19,0.38-0.57,0.67-0.96,0.86C339.16,35.13,338.68,35.23,338.11,35.23z"/>
	<path class="st1" d="M347.1,35.13l-2.68-3.25l0.57-0.67l3.16,3.92H347.1z M342.22,35.13v-8.89h0.87v8.89H342.22z M342.89,33.51
		v-1.05l3.92-3.64h1.05l-2.77,2.68l-0.48,0.38L342.89,33.51z"/>
	<path class="st1" d="M351.79,35.23c-0.67,0-1.25-0.19-1.73-0.48c-0.48-0.29-0.86-0.67-1.15-1.15c-0.29-0.48-0.38-0.96-0.38-1.62
		c0-0.57,0.1-1.15,0.38-1.62c0.29-0.48,0.67-0.86,1.05-1.15c0.48-0.29,1.06-0.38,1.63-0.38c0.57,0,1.15,0.1,1.53,0.38
		c0.48,0.29,0.86,0.58,1.15,1.15c0.19,0.48,0.38,0.96,0.38,1.62v0.1c0,0.1,0,0.1,0,0.19h-5.55v-0.67h5.07l-0.38,0.29
		c0-0.48-0.1-0.86-0.29-1.24c-0.19-0.38-0.38-0.67-0.76-0.86c-0.29-0.19-0.67-0.29-1.15-0.29c-0.48,0-0.86,0.1-1.15,0.29
		c-0.38,0.19-0.67,0.48-0.86,0.86c-0.19,0.38-0.29,0.76-0.29,1.24v0.1c0,0.48,0.1,0.96,0.38,1.34c0.19,0.29,0.48,0.57,0.86,0.86
		c0.39,0.19,0.77,0.29,1.34,0.29c0.38,0,0.67-0.1,1.05-0.19c0.29-0.19,0.57-0.38,0.86-0.67l0.48,0.57
		c-0.29,0.29-0.67,0.57-1.05,0.76C352.74,35.13,352.36,35.23,351.79,35.23z"/>
	<path class="st1" d="M356.38,35.13v-6.31h0.86v1.73l-0.1-0.29c0.19-0.48,0.48-0.86,0.86-1.06c0.39-0.29,0.96-0.38,1.53-0.38v0.77
		h-0.1c0,0,0,0-0.1,0c-0.67,0-1.15,0.19-1.53,0.57c-0.38,0.48-0.57,1.05-0.57,1.72v3.25H356.38z"/>
	<path class="st1" d="M62.63,70c-0.21,0-0.31,0-0.31-0.1c-0.1,0-0.21-0.1-0.21-0.21c-0.1,0-0.1-0.1-0.21-0.21
		c-0.1-0.1-0.1-0.21-0.1-0.31c0-0.31-0.11-0.51-0.11-0.82c0-0.21,0-0.62,0.11-1.03c0-0.41,0-0.72,0.1-1.13
		c0.1-0.31,0.21-0.62,0.21-0.83c0.1-0.31,0.21-0.51,0.21-0.62c0.1-0.21,0.1-0.31,0-0.31c0,0,0,0.1-0.1,0.21s-0.1,0.21-0.21,0.41
		c-0.1,0.1-0.1,0.31-0.21,0.41c-0.11,0.21-0.21,0.31-0.21,0.42c-0.1,0.31-0.31,0.62-0.41,0.82c-0.21,0.31-0.31,0.62-0.51,0.92
		c-0.1,0.21-0.31,0.51-0.41,0.72c-0.1,0.1-0.21,0.21-0.31,0.31c-0.1,0.21-0.21,0.31-0.31,0.51c-0.1,0.21-0.21,0.31-0.41,0.41
		c-0.1,0.21-0.31,0.31-0.51,0.31c-0.21,0.1-0.31,0-0.51-0.1c0,0-0.1,0-0.1-0.1c-0.1-0.1-0.1-0.1-0.21-0.21c0-0.1,0-0.21,0-0.31
		c0-0.1,0-0.31,0-0.62c0.1-0.21,0.1-0.51,0.1-0.82c0-0.31,0.1-0.62,0.1-0.82c0.1-0.31,0.1-0.51,0.1-0.72
		c0.1-0.52,0.21-1.14,0.31-1.75c0.21-0.51,0.31-1.13,0.41-1.64c0.1-0.21,0.1-0.41,0.21-0.62c0-0.21,0.1-0.41,0.1-0.62
		c0.1-0.21,0.1-0.31,0.21-0.41c0.1,0,0.21-0.1,0.31,0c0.1,0,0.21,0,0.31,0.1c0,0.1,0.1,0.21,0.21,0.41c0,0.21,0,0.41-0.1,0.72
		c-0.21,0.41-0.31,0.92-0.51,1.54c-0.21,0.62-0.31,1.33-0.41,2.16c-0.1,0.21-0.1,0.51-0.1,0.72c-0.1,0.31-0.1,0.51-0.1,0.82
		c-0.1,0.21-0.1,0.41-0.1,0.62c0,0.21,0,0.31,0,0.31c0.1,0,0.1,0,0.21-0.21c0.21-0.1,0.31-0.21,0.31-0.41
		c0.41-0.62,0.72-1.23,1.13-1.85c0.31-0.62,0.62-1.24,0.92-1.85c0.21-0.31,0.31-0.51,0.42-0.82c0.21-0.31,0.31-0.62,0.51-0.82
		c0.1-0.31,0.21-0.51,0.41-0.72c0.1-0.21,0.21-0.41,0.31-0.51c0.1-0.21,0.1-0.31,0.21-0.31c0.1,0,0.31,0.1,0.41,0.1
		c0.1,0.1,0.21,0.21,0.21,0.41c0,0.1,0.1,0.1,0,0.21c0,0.1,0,0.21,0,0.31c0,0-0.1,0.21-0.1,0.41c-0.1,0.1-0.21,0.31-0.21,0.62
		c-0.1,0.21-0.21,0.41-0.21,0.62c-0.1,0.31-0.1,0.41-0.21,0.62c0,0.31-0.1,0.72-0.21,1.23c-0.1,0.42-0.21,0.83-0.31,1.24
		c0,0.51-0.1,0.82-0.1,1.23c0,0.21,0,0.41,0,0.51s0.1,0.21,0.1,0.31l0.1,0.1c0.1,0,0.21-0.1,0.21-0.1c0.21-0.21,0.31-0.41,0.41-0.62
		c0.1-0.1,0.21-0.31,0.31-0.51c0.1-0.1,0.21-0.31,0.31-0.62c0.21-0.31,0.41-0.82,0.72-1.23c0.21-0.52,0.41-1.03,0.62-1.44
		c0.21-0.51,0.41-0.92,0.51-1.23c0.21-0.51,0.31-0.92,0.41-1.13c0.1-0.31,0.21-0.51,0.31-0.62c0.1-0.21,0.21-0.31,0.31-0.31
		c0-0.1,0.1-0.1,0.21-0.1c0.1,0,0.1,0.1,0.21,0.1c0,0.1,0.1,0.1,0.1,0.21c0.1,0,0.1,0.1,0.1,0.21c0,0.21-0.1,0.41-0.21,0.72
		c-0.11,0.31-0.31,0.62-0.42,1.03c-0.1,0.31-0.31,0.62-0.41,1.03c-0.1,0.31-0.21,0.62-0.31,0.72c-0.1,0.21-0.21,0.41-0.31,0.51
		c-0.1,0.1-0.1,0.21-0.1,0.31c0,0-0.1,0.1-0.21,0.31c0,0.21-0.1,0.41-0.31,0.62c-0.1,0.31-0.21,0.51-0.41,0.82
		c-0.1,0.21-0.31,0.51-0.41,0.72c-0.21,0.21-0.31,0.41-0.41,0.51c-0.21,0.21-0.41,0.51-0.62,0.62c-0.21,0.21-0.41,0.31-0.51,0.41
		C62.74,70,62.63,70,62.63,70z"/>
	<path class="st1" d="M68.56,65.99c0.1,0,0.21-0.1,0.31-0.1c0.1-0.1,0.21-0.21,0.31-0.31c0-0.1,0.1-0.21,0.1-0.31
		s-0.1-0.21-0.21-0.21c-0.1-0.1-0.31-0.1-0.51-0.1c-0.1,0.1-0.21,0.1-0.31,0.21s-0.21,0.21-0.31,0.31c-0.1,0.1-0.21,0.21-0.21,0.31
		c-0.1,0.1-0.1,0.1-0.1,0.21c0,0,0.1,0,0.21,0.1c0.1,0,0.21,0,0.41,0C68.35,66.1,68.45,66.1,68.56,65.99z M68.66,68.76
		c-0.21,0.21-0.51,0.31-0.72,0.31c-0.21,0-0.51,0-0.72-0.1c-0.21-0.1-0.41-0.31-0.62-0.41c-0.1-0.21-0.21-0.41-0.21-0.62
		c-0.1-0.31-0.1-0.62,0-1.03c0-0.31,0.1-0.72,0.31-1.03c0.21-0.42,0.42-0.72,0.72-1.03c0.21-0.21,0.51-0.41,0.82-0.51
		c0.1-0.1,0.21-0.1,0.31-0.21c0.1,0,0.31,0,0.41,0.1c0.21,0,0.41,0,0.51,0.1c0.1,0,0.21,0.1,0.31,0.21s0.21,0.31,0.21,0.41
		c0.1,0.1,0.1,0.21,0.1,0.31c-0.1,0.31-0.21,0.52-0.41,0.83c-0.21,0.31-0.51,0.51-0.82,0.62c-0.21,0.1-0.41,0.1-0.62,0.1
		c-0.21,0-0.41,0-0.62-0.1c-0.21-0.1-0.31-0.1-0.41,0c0,0.1,0,0.31-0.1,0.62c0,0.31,0,0.51,0.1,0.62c0.1,0.1,0.21,0.21,0.31,0.31
		c0.21,0,0.41,0,0.41,0c0.1,0,0.31,0,0.41-0.1c0.1-0.1,0.21-0.1,0.21-0.1c0.1-0.1,0.1-0.1,0.1-0.1c0.1-0.1,0.1-0.1,0.21-0.21
		l0.1-0.1c0.1,0,0.1,0,0.1,0c0.1,0,0.21,0,0.21,0.1c0.1,0,0.1,0.1,0.1,0.1c0.1,0,0.1,0.1,0,0.21c0,0.1-0.1,0.21-0.31,0.41
		C68.97,68.56,68.76,68.66,68.66,68.76z"/>
	<path class="st1" d="M71.99,66.39c0.1,0,0.31-0.1,0.31-0.1c0.1-0.1,0.21-0.21,0.31-0.31c0.21-0.21,0.31-0.42,0.31-0.62
		c0.1-0.21,0-0.41,0-0.41c-0.1-0.1-0.1-0.1-0.21-0.1c0,0,0,0-0.1,0c-0.1,0-0.21,0.1-0.31,0.21c-0.21,0.1-0.31,0.21-0.42,0.31
		c-0.1,0.1-0.21,0.31-0.31,0.42l-0.21,0.21c0.1,0,0.1,0,0.21,0c0,0,0,0,0.1,0c0,0.1,0,0.1,0,0.21c0.1,0,0.1,0.1,0.1,0.1
		C71.88,66.39,71.88,66.39,71.99,66.39z M71.37,69.27c-0.41,0-0.72-0.1-0.92-0.41c-0.31-0.31-0.41-0.62-0.41-1.13
		c0-0.31,0.1-0.62,0.21-1.03c0.1-0.31,0.31-0.72,0.41-1.03c0.21-0.31,0.41-0.62,0.62-0.93c0.21-0.21,0.51-0.41,0.72-0.51
		c0.1,0,0.21-0.1,0.21-0.1c0.1,0,0.21,0,0.31,0c0.1,0,0.21,0,0.31,0c0.21,0,0.21,0.1,0.31,0.1c0.21,0.1,0.31,0.1,0.41,0.31
		c0.1,0.1,0.21,0.21,0.21,0.51c0,0.1,0,0.21,0,0.31s0,0.21,0,0.31c-0.1,0.31-0.31,0.51-0.51,0.82c-0.1,0.21-0.41,0.41-0.62,0.51
		c-0.1,0-0.21,0.1-0.21,0.1c-0.1,0-0.21,0-0.31,0c-0.1,0-0.31,0-0.52-0.1c-0.1,0-0.21-0.1-0.31-0.21l-0.1-0.1l-0.1,0.1
		c0,0.21-0.1,0.41-0.1,0.51c-0.1,0.21-0.1,0.31-0.1,0.51c0,0.1,0,0.21,0,0.31s0.1,0.1,0.1,0.21s0.1,0.1,0.21,0.1c0,0,0.1,0,0.21,0
		c0.1,0,0.1,0,0.21,0h0.1c0.21,0,0.31-0.1,0.42-0.21c0.1,0,0.21-0.1,0.31-0.21c0.1-0.1,0.21-0.1,0.31-0.1c0.1-0.1,0.1-0.1,0.1-0.1
		s0.1,0,0.1-0.1c0.1,0,0.21,0,0.31,0.1c0.1,0,0.21,0.1,0.21,0.21s-0.1,0.1-0.21,0.21c0,0.1-0.1,0.21-0.21,0.31
		c-0.1,0.1-0.21,0.21-0.21,0.21h-0.1c0,0-0.1,0-0.1,0.1c-0.1,0.1-0.1,0.1-0.21,0.1h-0.1c0,0.1-0.1,0.1-0.31,0.21
		C71.78,69.27,71.58,69.27,71.37,69.27z"/>
	<path class="st1" d="M74.15,69.33c0,0-0.1-0.1-0.21-0.21c-0.1-0.1-0.21-0.21-0.21-0.31c-0.1-0.1-0.1-0.21-0.1-0.31
		c0-0.1,0.1-0.31,0.1-0.51c0.1-0.21,0.21-0.51,0.31-0.82c0.1-0.1,0.1-0.21,0.21-0.31c0-0.1,0-0.21,0.1-0.41
		c0-0.1,0.1-0.31,0.21-0.51c0.1-0.21,0.21-0.42,0.31-0.62c0-0.21,0.1-0.41,0.21-0.51c0.1-0.31,0.21-0.51,0.31-0.72
		c0.1-0.21,0.1-0.41,0.21-0.51c0.1-0.21,0.21-0.41,0.31-0.72c0.1-0.21,0.21-0.51,0.31-0.72c0.1-0.31,0.21-0.51,0.31-0.72
		c0-0.21,0.1-0.31,0.1-0.41s0-0.1,0-0.1c0.1-0.1,0.1-0.1,0.1-0.1c0.1,0,0.1,0,0.21,0c0-0.1,0.1-0.1,0.1-0.1
		c0.11,0.1,0.11,0.1,0.21,0.31c0.1,0.1,0.21,0.21,0.21,0.31s-0.1,0.41-0.21,0.72c-0.1,0.41-0.31,0.82-0.62,1.33
		c-0.21,0.62-0.51,1.13-0.62,1.54c-0.21,0.41-0.31,0.72-0.41,0.93c0,0.1-0.1,0.21,0,0.31c0,0,0-0.1,0.1-0.1s0.21-0.1,0.41-0.21
		c0-0.11,0.1-0.11,0.31-0.21c0.1-0.1,0.21-0.21,0.31-0.21c0.1-0.1,0.21-0.21,0.21-0.21c0.1,0,0.21-0.1,0.31-0.21
		c0.1,0,0.21-0.1,0.21-0.1c0.21-0.1,0.31-0.1,0.41-0.1c0,0.1,0.1,0.1,0.21,0.21s0.1,0.21,0.1,0.31c-0.1,0.1-0.21,0.21-0.51,0.41
		c-0.1,0.11-0.31,0.21-0.62,0.42c-0.21,0.1-0.41,0.31-0.62,0.41c-0.21,0.1-0.31,0.1-0.31,0.21c0,0,0,0,0.1,0.21
		c0,0.1,0.1,0.21,0.21,0.31c0,0.1,0.1,0.31,0.21,0.41c0.1,0.1,0.1,0.21,0.21,0.31c0,0.21,0.21,0.41,0.31,0.51
		c0.21,0.1,0.41,0.1,0.62,0c0.1-0.1,0.21-0.1,0.31-0.1c0.1,0.1,0.21,0.1,0.21,0.21s0,0.1,0,0.21c0,0,0,0.1-0.1,0.21
		c-0.21,0.21-0.41,0.31-0.62,0.31c-0.21,0.1-0.31,0.1-0.52,0c-0.1,0-0.31-0.21-0.51-0.31c-0.1-0.21-0.41-0.51-0.72-0.82
		c0-0.1,0-0.1,0-0.21c-0.1-0.1-0.1-0.21-0.1-0.21c0-0.1-0.1-0.1-0.1-0.21c-0.1-0.1-0.1-0.1-0.1-0.1c0-0.1,0-0.1-0.1-0.21
		c0,0,0-0.1-0.1-0.1c-0.1,0-0.1,0-0.21,0.1c-0.1,0.1-0.1,0.21-0.21,0.31c0,0.1-0.1,0.21-0.1,0.41c-0.1,0.21-0.1,0.31-0.21,0.51
		c0,0.21,0,0.31,0,0.41s0,0.21-0.1,0.31C74.46,69.33,74.36,69.33,74.15,69.33z"/>
	<path class="st1" d="M84.03,69.46h-0.1c-0.1,0-0.1,0-0.21-0.1c-0.1,0-0.1-0.1-0.21-0.1c0-0.1-0.1-0.1-0.1-0.1c0-0.1,0-0.21,0-0.31
		s0.1-0.31,0.1-0.51c0.1-0.21,0.1-0.41,0.1-0.62c0.1-0.1,0.1-0.31,0.21-0.41c0-0.1,0-0.21,0-0.21c0.1,0,0.1-0.1,0.21-0.41
		c0.1-0.21,0.21-0.51,0.31-0.82c0-0.1,0.1-0.31,0.1-0.62c0.1-0.31,0.21-0.51,0.31-0.82c0.1-0.21,0.1-0.41,0.21-0.62
		c0-0.21,0.1-0.31,0.1-0.31s-0.1,0-0.21,0.1s-0.31,0.21-0.41,0.31c-0.21,0.1-0.41,0.21-0.62,0.31c-0.1,0.1-0.31,0.21-0.51,0.41
		c-0.21,0.1-0.31,0.31-0.51,0.41c-0.21,0.1-0.31,0.21-0.41,0.31c-0.1,0-0.1,0-0.21-0.1c-0.1,0-0.21-0.21-0.31-0.31
		c0-0.1,0-0.21,0-0.31c0.1,0,0.1,0,0.21-0.1c0.1-0.1,0.21-0.1,0.31-0.21c0.1-0.1,0.21-0.21,0.31-0.21c0.1-0.1,0.21-0.21,0.21-0.21
		c0.1,0,0.1,0,0.21-0.1c0,0,0.1-0.1,0.21-0.1c0-0.1,0.21-0.21,0.41-0.41c0.31-0.1,0.51-0.31,0.82-0.62
		c0.41-0.21,0.62-0.31,0.82-0.41c0.31-0.1,0.41-0.21,0.41-0.21s0.1,0,0.21,0.1c0,0,0.1,0.1,0.21,0.1c0,0.1,0.1,0.1,0.1,0.21
		c0,0,0,0.21-0.1,0.41c0,0.1-0.1,0.21-0.21,0.41c0,0.21-0.1,0.41-0.21,0.72c-0.1,0.21-0.21,0.51-0.31,0.72
		c0,0.31-0.1,0.51-0.21,0.72c0,0.21-0.1,0.42-0.1,0.62c-0.1,0.1-0.1,0.21-0.21,0.41c0,0.1-0.1,0.31-0.1,0.51
		c-0.1,0.1-0.21,0.31-0.21,0.51c-0.1,0.21-0.1,0.41-0.21,0.62c0,0.21-0.1,0.41-0.1,0.51c-0.1,0.21-0.1,0.31-0.21,0.51
		C84.13,69.36,84.03,69.36,84.03,69.46z"/>
	<polygon class="st1" points="116.22,91.45 116.22,85.91 116.83,85.91 119.35,90.04 119.05,90.04 121.46,85.91 122.07,85.91 
		122.07,91.45 121.36,91.45 121.36,87.13 121.56,87.13 119.35,90.75 118.95,90.75 116.83,87.13 117.03,87.13 117.03,91.45 	"/>
	<path class="st1" d="M125.03,90.8c0.2,0,0.5-0.1,0.7-0.2c0.2-0.1,0.3-0.3,0.5-0.5c0.1-0.2,0.1-0.5,0.1-0.8c0-0.3,0-0.5-0.1-0.8
		c-0.2-0.2-0.3-0.3-0.5-0.5c-0.2-0.1-0.5-0.1-0.7-0.1c-0.3,0-0.5,0-0.8,0.1c-0.2,0.2-0.3,0.3-0.5,0.5c-0.1,0.3-0.2,0.5-0.2,0.8
		c0,0.3,0.1,0.6,0.2,0.8c0.2,0.2,0.3,0.4,0.5,0.5C124.42,90.7,124.72,90.8,125.03,90.8z M125.03,91.4c-0.5,0-0.8-0.1-1.21-0.2
		c-0.3-0.2-0.5-0.5-0.7-0.8c-0.2-0.3-0.3-0.7-0.3-1.11c0-0.4,0.1-0.8,0.3-1.11c0.2-0.3,0.4-0.6,0.7-0.7c0.4-0.2,0.7-0.3,1.21-0.3
		c0.4,0,0.7,0.1,1.11,0.3c0.3,0.1,0.5,0.4,0.7,0.7c0.2,0.3,0.3,0.7,0.3,1.11c0,0.4-0.1,0.8-0.3,1.11c-0.2,0.3-0.4,0.6-0.7,0.8
		C125.73,91.3,125.43,91.4,125.03,91.4z"/>
	<path class="st1" d="M130.08,87.18c0.3,0,0.6,0.1,0.91,0.2c0.2,0.1,0.4,0.3,0.6,0.6c0.1,0.3,0.2,0.6,0.2,1.01v2.41h-0.8v-2.31
		c0-0.4-0.1-0.7-0.3-0.91c-0.2-0.2-0.4-0.3-0.8-0.3c-0.2,0-0.5,0-0.7,0.1c-0.2,0.1-0.3,0.3-0.4,0.5c-0.1,0.2-0.2,0.4-0.2,0.7v2.21
		h-0.8v-4.23h0.8v1.21l-0.1-0.3c0.1-0.3,0.3-0.5,0.6-0.7C129.38,87.28,129.68,87.18,130.08,87.18z"/>
	<polygon class="st1" points="154.56,91.45 154.56,86.62 152.65,86.62 152.65,85.91 157.18,85.91 157.18,86.62 155.37,86.62 
		155.37,91.45 	"/>
	<path class="st1" d="M159.24,91.4c-0.3,0-0.6,0-0.91-0.2c-0.3-0.1-0.5-0.3-0.6-0.6c-0.21-0.2-0.31-0.6-0.31-1.01v-2.41h0.81v2.31
		c0,0.4,0.1,0.8,0.3,1.01c0.2,0.2,0.5,0.3,0.8,0.3c0.3,0,0.5-0.1,0.7-0.2c0.2-0.1,0.3-0.3,0.4-0.5c0.2-0.2,0.2-0.4,0.2-0.7v-2.21
		h0.8v4.23h-0.8V90.3l0.2,0.3c-0.2,0.2-0.4,0.5-0.7,0.6C159.94,91.4,159.64,91.4,159.24,91.4z"/>
	<path class="st1" d="M164.3,91.4c-0.4,0-0.8-0.1-1.11-0.2c-0.4-0.2-0.61-0.5-0.81-0.8c-0.2-0.3-0.3-0.7-0.3-1.11
		c0-0.4,0.1-0.8,0.3-1.11c0.2-0.3,0.41-0.6,0.71-0.7c0.3-0.2,0.7-0.3,1.11-0.3c0.4,0,0.7,0.1,1.11,0.3c0.3,0.1,0.5,0.4,0.7,0.7
		c0.2,0.3,0.2,0.7,0.2,1.11c0,0.1,0,0.1,0,0.1c0,0.1,0,0.1,0,0.2h-3.53v-0.6h3.13l-0.3,0.2c0-0.3,0-0.5-0.1-0.7s-0.3-0.4-0.5-0.5
		c-0.2-0.1-0.4-0.2-0.7-0.2c-0.3,0-0.5,0.1-0.7,0.2c-0.2,0.1-0.4,0.3-0.5,0.5s-0.2,0.5-0.2,0.7v0.2c0,0.2,0.1,0.5,0.2,0.7
		c0.2,0.2,0.3,0.4,0.6,0.5c0.2,0.1,0.5,0.2,0.8,0.2c0.2,0,0.4-0.1,0.6-0.1c0.2-0.1,0.4-0.3,0.6-0.4l0.4,0.5
		c-0.2,0.2-0.4,0.3-0.7,0.5C165,91.4,164.7,91.4,164.3,91.4z"/>
	<polygon class="st1" points="188.36,91.45 186.55,85.91 187.35,85.91 189.07,91.05 188.56,91.05 190.37,85.91 191.08,85.91 
		192.79,91.05 192.39,91.05 194.1,85.91 194.91,85.91 192.99,91.45 192.19,91.45 190.58,86.72 190.78,86.72 189.17,91.45 	"/>
	<path class="st1" d="M196.85,91.4c-0.5,0-0.91-0.1-1.21-0.2c-0.3-0.2-0.6-0.5-0.8-0.8c-0.2-0.3-0.3-0.7-0.3-1.11
		c0-0.4,0.1-0.8,0.3-1.11c0.2-0.3,0.4-0.6,0.7-0.7c0.4-0.2,0.7-0.3,1.11-0.3c0.4,0,0.8,0.1,1.11,0.3c0.3,0.1,0.5,0.4,0.71,0.7
		c0.2,0.3,0.3,0.7,0.3,1.11c0,0.1,0,0.1,0,0.1c0,0.1,0,0.1,0,0.2h-3.63v-0.6h3.23l-0.31,0.2c0-0.3-0.1-0.5-0.2-0.7s-0.3-0.4-0.5-0.5
		c-0.2-0.1-0.4-0.2-0.7-0.2c-0.2,0-0.5,0.1-0.7,0.2c-0.2,0.1-0.3,0.3-0.5,0.5c-0.1,0.2-0.1,0.5-0.1,0.7v0.2c0,0.2,0,0.5,0.2,0.7
		c0.1,0.2,0.3,0.4,0.5,0.5c0.2,0.1,0.5,0.2,0.8,0.2c0.2,0,0.5-0.1,0.7-0.1c0.2-0.1,0.3-0.3,0.5-0.4l0.41,0.5
		c-0.21,0.2-0.41,0.3-0.71,0.5C197.45,91.4,197.15,91.4,196.85,91.4z"/>
	<path class="st1" d="M202.63,91.46v-1.11v-1.01v-1.01v-2.72h0.7v5.84H202.63z M201.22,90.86c0.2,0,0.5-0.1,0.7-0.2
		c0.2-0.1,0.4-0.3,0.5-0.5c0.1-0.2,0.2-0.5,0.2-0.8c0-0.3-0.1-0.5-0.2-0.8c-0.1-0.2-0.3-0.3-0.5-0.5c-0.2-0.1-0.5-0.1-0.7-0.1
		c-0.3,0-0.5,0-0.7,0.1c-0.2,0.2-0.4,0.3-0.5,0.5c-0.2,0.3-0.2,0.5-0.2,0.8c0,0.3,0,0.6,0.2,0.8c0.1,0.2,0.3,0.4,0.5,0.5
		C200.72,90.76,200.92,90.86,201.22,90.86z M201.12,91.46c-0.4,0-0.7-0.1-1.11-0.2c-0.3-0.2-0.5-0.5-0.7-0.8
		c-0.2-0.3-0.3-0.7-0.3-1.11c0-0.4,0.1-0.8,0.3-1.11c0.2-0.3,0.4-0.6,0.7-0.7c0.4-0.2,0.7-0.3,1.11-0.3c0.4,0,0.7,0.1,1.01,0.2
		c0.3,0.2,0.5,0.4,0.6,0.7c0.2,0.4,0.3,0.7,0.3,1.21c0,0.5-0.1,0.91-0.2,1.21c-0.2,0.3-0.4,0.5-0.7,0.7
		C201.83,91.46,201.52,91.46,201.12,91.46z"/>
	<polygon class="st1" points="225.54,91.45 225.54,86.62 223.62,86.62 223.62,85.91 228.15,85.91 228.15,86.62 226.24,86.62 
		226.24,91.45 	"/>
	<path class="st1" d="M230.8,87.24c0.3,0,0.6,0.1,0.91,0.2c0.2,0.1,0.4,0.3,0.6,0.6c0.1,0.3,0.2,0.6,0.2,1.01v2.41h-0.7v-2.31
		c0-0.4-0.1-0.7-0.3-0.91c-0.2-0.2-0.5-0.3-0.91-0.3c-0.2,0-0.5,0-0.7,0.1c-0.2,0.1-0.3,0.3-0.4,0.5c-0.1,0.2-0.2,0.4-0.2,0.7v2.21
		h-0.7v-5.84h0.7v2.82l-0.1-0.3c0.1-0.3,0.3-0.5,0.6-0.7C230.1,87.34,230.4,87.24,230.8,87.24z"/>
	<path class="st1" d="M235.24,91.4c-0.3,0-0.6,0-0.91-0.2c-0.3-0.1-0.5-0.3-0.6-0.6c-0.2-0.2-0.2-0.6-0.2-1.01v-2.41h0.7v2.31
		c0,0.4,0.1,0.8,0.3,1.01c0.2,0.2,0.5,0.3,0.8,0.3c0.3,0,0.5-0.1,0.7-0.2c0.2-0.1,0.4-0.3,0.5-0.5c0.1-0.2,0.1-0.4,0.1-0.7v-2.21
		h0.8v4.23h-0.7V90.3l0.1,0.3c-0.2,0.2-0.4,0.5-0.6,0.6C235.95,91.4,235.65,91.4,235.24,91.4z"/>
	<path class="st1" d="M263.16,91.45h-0.8v-5.54h3.83v0.71h-3.02V91.45z M263.06,88.54h2.82v0.7h-2.82V88.54z"/>
	<path class="st1" d="M266.89,91.4v-4.23h0.7v1.21l-0.1-0.3c0.1-0.3,0.3-0.5,0.6-0.7c0.3-0.1,0.6-0.2,1.01-0.2v0.7h-0.1h-0.11
		c-0.4,0-0.7,0.1-0.91,0.4c-0.3,0.2-0.4,0.6-0.4,1.01v2.11H266.89z"/>
	<path class="st1" d="M270.24,86.43c-0.1,0-0.3,0-0.4-0.1c-0.1-0.1-0.1-0.2-0.1-0.3c0-0.2,0-0.3,0.1-0.4c0.1-0.1,0.2-0.1,0.4-0.1
		c0.1,0,0.3,0,0.4,0.1c0.1,0.1,0.1,0.2,0.1,0.3c0,0.2,0,0.3-0.1,0.4C270.54,86.43,270.34,86.43,270.24,86.43z M269.83,91.47v-4.23
		h0.8v4.23H269.83z"/>
	<path class="st1" d="M298.4,91.55c-0.4,0-0.8-0.1-1.21-0.2c-0.4-0.2-0.7-0.3-0.91-0.5l0.3-0.6c0.2,0.1,0.5,0.3,0.8,0.4
		c0.3,0.1,0.6,0.2,1.01,0.2c0.3,0,0.6-0.1,0.8-0.1c0.21-0.1,0.31-0.2,0.41-0.3c0.1-0.2,0.2-0.3,0.2-0.5c0-0.1-0.1-0.3-0.2-0.4
		c-0.2-0.1-0.3-0.2-0.51-0.3c-0.2-0.1-0.4-0.1-0.7-0.2c-0.2,0-0.4-0.1-0.7-0.2c-0.2,0-0.4-0.1-0.6-0.2c-0.2-0.1-0.4-0.3-0.5-0.5
		c-0.1-0.2-0.2-0.4-0.2-0.7c0-0.3,0.1-0.5,0.3-0.8c0.1-0.21,0.3-0.41,0.6-0.51c0.4-0.2,0.7-0.3,1.21-0.3c0.3,0,0.7,0.1,1.01,0.2
		c0.3,0,0.6,0.2,0.8,0.3l-0.3,0.71c-0.2-0.2-0.5-0.3-0.7-0.4c-0.31-0.11-0.51-0.11-0.81-0.11c-0.3,0-0.5,0-0.7,0.11
		c-0.2,0.1-0.4,0.2-0.5,0.3c-0.1,0.2-0.1,0.3-0.1,0.5c0,0.2,0.1,0.3,0.2,0.4c0.1,0.2,0.3,0.2,0.5,0.3c0.2,0.1,0.4,0.1,0.6,0.2
		c0.2,0.1,0.5,0.1,0.7,0.2c0.31,0,0.51,0.1,0.71,0.2c0.2,0.2,0.3,0.3,0.4,0.5c0.2,0.2,0.2,0.4,0.2,0.7s-0.1,0.5-0.2,0.8
		c-0.2,0.2-0.4,0.4-0.7,0.5C299.31,91.45,298.9,91.55,298.4,91.55z"/>
	<path class="st1" d="M302.49,91.4c-0.3,0-0.6,0-0.8-0.1c-0.3-0.1-0.5-0.3-0.6-0.5c-0.1-0.1-0.2-0.4-0.2-0.6s0.1-0.4,0.2-0.6
		c0.1-0.2,0.3-0.3,0.5-0.4c0.3-0.1,0.6-0.2,1.01-0.2h1.31v0.5h-1.31c-0.3,0-0.6,0.1-0.7,0.2c-0.2,0.2-0.2,0.3-0.2,0.5
		s0.1,0.3,0.2,0.5c0.2,0.1,0.4,0.2,0.7,0.2c0.3,0,0.5-0.1,0.7-0.2c0.2-0.2,0.4-0.3,0.5-0.6l0.1,0.5c-0.1,0.3-0.2,0.5-0.5,0.6
		C303.19,91.4,302.89,91.4,302.49,91.4z M303.8,91.4V90.5v-0.2v-1.51c0-0.3-0.1-0.5-0.3-0.7c-0.2-0.2-0.5-0.3-0.8-0.3
		c-0.3,0-0.5,0.1-0.7,0.2c-0.3,0.1-0.5,0.2-0.6,0.3l-0.4-0.6c0.3-0.1,0.5-0.3,0.8-0.4c0.3-0.1,0.6-0.1,1.01-0.1
		c0.5,0,1.01,0.1,1.31,0.4c0.31,0.3,0.41,0.7,0.41,1.31v2.52H303.8z"/>
	<path class="st1" d="M305.01,87.92v-0.7h2.72v0.7H305.01z M307.12,91.44c-0.5,0-0.8-0.1-1.01-0.3s-0.4-0.5-0.4-1.01V86.3h0.8v3.83
		c0,0.2,0.1,0.4,0.2,0.5c0.1,0.1,0.2,0.2,0.4,0.2c0.3,0,0.5-0.1,0.6-0.2l0.3,0.5c-0.1,0.1-0.3,0.2-0.4,0.3
		C307.42,91.44,307.22,91.44,307.12,91.44z"/>
	<path class="st1" d="M332.72,91.55c-0.4,0-0.8-0.1-1.21-0.2c-0.3-0.2-0.6-0.3-0.91-0.5l0.3-0.6c0.2,0.1,0.5,0.3,0.8,0.4
		c0.4,0.1,0.7,0.2,1.01,0.2c0.4,0,0.6-0.1,0.8-0.1c0.2-0.1,0.4-0.2,0.5-0.3c0-0.2,0.1-0.3,0.1-0.5c0-0.1-0.1-0.3-0.2-0.4
		c-0.1-0.1-0.3-0.2-0.5-0.3c-0.2-0.1-0.4-0.1-0.6-0.2c-0.2,0-0.5-0.1-0.7-0.2c-0.3,0-0.5-0.1-0.7-0.2c-0.2-0.1-0.3-0.3-0.4-0.5
		c-0.2-0.2-0.2-0.4-0.2-0.7c0-0.3,0-0.5,0.2-0.8c0.1-0.21,0.4-0.41,0.7-0.51c0.3-0.2,0.7-0.3,1.21-0.3c0.3,0,0.6,0.1,0.91,0.2
		c0.3,0,0.6,0.2,0.8,0.3l-0.2,0.71c-0.3-0.2-0.5-0.3-0.8-0.4c-0.2-0.11-0.5-0.11-0.7-0.11c-0.3,0-0.6,0-0.8,0.11
		c-0.2,0.1-0.3,0.2-0.4,0.3c-0.1,0.2-0.2,0.3-0.2,0.5c0,0.2,0.1,0.3,0.2,0.4c0.1,0.2,0.3,0.2,0.5,0.3c0.2,0.1,0.4,0.1,0.6,0.2
		c0.3,0.1,0.5,0.1,0.8,0.2c0.2,0,0.4,0.1,0.6,0.2c0.2,0.2,0.4,0.3,0.51,0.5c0.1,0.2,0.2,0.4,0.2,0.7s-0.1,0.5-0.31,0.8
		c-0.1,0.2-0.3,0.4-0.7,0.5C333.62,91.45,333.22,91.55,332.72,91.55z"/>
	<path class="st1" d="M337.27,91.4c-0.3,0-0.6,0-0.91-0.2c-0.3-0.1-0.5-0.3-0.6-0.6c-0.2-0.2-0.2-0.6-0.2-1.01v-2.41h0.7v2.31
		c0,0.4,0.1,0.8,0.3,1.01c0.2,0.2,0.5,0.3,0.8,0.3s0.5-0.1,0.7-0.2c0.2-0.1,0.4-0.3,0.5-0.5s0.1-0.4,0.1-0.7v-2.21h0.8v4.23h-0.7
		V90.3l0.1,0.3c-0.2,0.2-0.4,0.5-0.6,0.6C337.98,91.4,337.68,91.4,337.27,91.4z"/>
	<path class="st1" d="M342.72,87.18c0.4,0,0.7,0.1,0.91,0.2c0.3,0.1,0.5,0.3,0.6,0.6c0.2,0.3,0.2,0.6,0.2,1.01v2.41h-0.7v-2.31
		c0-0.4-0.1-0.7-0.3-0.91c-0.2-0.2-0.5-0.3-0.8-0.3s-0.5,0-0.7,0.1c-0.2,0.1-0.4,0.3-0.5,0.5c-0.1,0.2-0.1,0.4-0.1,0.7v2.21h-0.8
		v-4.23h0.7v1.21l-0.1-0.3c0.1-0.3,0.3-0.5,0.6-0.7C342.02,87.28,342.32,87.18,342.72,87.18z"/>
	<line class="st2" x1="34.99" y1="113.01" x2="95.31" y2="113.01"/>
</g>
<g>
	<defs>
		<rect id="SVGID_5_" x="-25.39" y="-5.67" width="475.44" height="615.76"/>
	</defs>
	<clipPath id="SVGID_6_">
		<use xlink:href="#SVGID_5_"  style="overflow:visible;"/>
	</clipPath>
	<line class="st3" x1="34.99" y1="133.28" x2="95.31" y2="133.28"/>
</g>
<g>
	<defs>
		<rect id="SVGID_7_" x="-25.39" y="-5.67" width="475.44" height="615.76"/>
	</defs>
	<clipPath id="SVGID_8_">
		<use xlink:href="#SVGID_7_"  style="overflow:visible;"/>
	</clipPath>
	<line class="st4" x1="34.99" y1="153.07" x2="95.31" y2="153.07"/>
</g>
<g>
	<defs>
		<rect id="SVGID_9_" x="-25.39" y="-5.67" width="475.44" height="615.76"/>
	</defs>
	<clipPath id="SVGID_10_">
		<use xlink:href="#SVGID_9_"  style="overflow:visible;"/>
	</clipPath>
	<line class="st5" x1="34.99" y1="172.87" x2="95.31" y2="172.87"/>
</g>
<g>
	<defs>
		<rect id="SVGID_11_" x="-25.39" y="-5.67" width="475.44" height="615.76"/>
	</defs>
	<clipPath id="SVGID_12_">
		<use xlink:href="#SVGID_11_"  style="overflow:visible;"/>
	</clipPath>
	<path class="st6" d="M62.63,204.37c-0.21,0-0.31,0-0.31-0.1c-0.1,0-0.21-0.1-0.21-0.21c-0.1,0-0.1-0.1-0.21-0.21
		c-0.1-0.1-0.1-0.21-0.1-0.31c0-0.31-0.11-0.62-0.11-0.82c0-0.31,0-0.62,0.11-1.13c0-0.31,0-0.72,0.1-1.03
		c0.1-0.31,0.21-0.62,0.21-0.92c0.1-0.21,0.21-0.41,0.21-0.62c0.1-0.1,0.1-0.21,0-0.21c0,0,0,0.1-0.1,0.21
		c-0.1,0.1-0.1,0.21-0.21,0.31c-0.1,0.21-0.1,0.31-0.21,0.51c-0.11,0.1-0.21,0.31-0.21,0.41c-0.1,0.21-0.31,0.51-0.41,0.82
		c-0.21,0.31-0.31,0.62-0.51,0.82c-0.1,0.31-0.31,0.51-0.41,0.72c-0.1,0.1-0.21,0.21-0.31,0.41c-0.1,0.21-0.21,0.31-0.31,0.51
		c-0.1,0.1-0.21,0.31-0.41,0.41c-0.1,0.21-0.31,0.31-0.51,0.31c-0.21,0-0.31,0-0.51-0.1l-0.1-0.1c-0.1-0.1-0.1-0.21-0.21-0.31
		c0-0.1,0-0.1,0-0.21c0-0.21,0-0.31,0-0.62c0.1-0.21,0.1-0.51,0.1-0.82c0-0.31,0.1-0.62,0.1-0.92c0.1-0.21,0.1-0.51,0.1-0.72
		c0.1-0.51,0.21-1.03,0.31-1.64c0.21-0.62,0.31-1.14,0.41-1.75c0.1-0.21,0.1-0.31,0.21-0.62c0-0.21,0.1-0.41,0.1-0.62
		c0.1-0.1,0.1-0.31,0.21-0.31c0.1-0.1,0.21-0.1,0.31-0.1c0.1,0.1,0.21,0.1,0.31,0.21c0,0.1,0.1,0.21,0.21,0.41
		c0,0.21,0,0.41-0.1,0.62c-0.21,0.51-0.31,1.03-0.51,1.54c-0.21,0.62-0.31,1.34-0.41,2.26c-0.1,0.21-0.1,0.41-0.1,0.72
		c-0.1,0.31-0.1,0.51-0.1,0.82c-0.1,0.21-0.1,0.41-0.1,0.62c0,0.1,0,0.21,0,0.21c0.1,0.1,0.1,0,0.21-0.1
		c0.21-0.1,0.31-0.31,0.31-0.51c0.41-0.51,0.72-1.13,1.13-1.74c0.31-0.62,0.62-1.23,0.92-1.85c0.21-0.31,0.31-0.62,0.42-0.83
		c0.21-0.31,0.31-0.62,0.51-0.82c0.1-0.31,0.21-0.51,0.41-0.72c0.1-0.21,0.21-0.41,0.31-0.62c0.1-0.1,0.1-0.21,0.21-0.21
		c0.1,0,0.31,0,0.41,0.1c0.1,0.1,0.21,0.21,0.21,0.41c0,0,0.1,0.1,0,0.21c0,0.1,0,0.21,0,0.21c0,0.1-0.1,0.21-0.1,0.41
		c-0.1,0.21-0.21,0.41-0.21,0.62c-0.1,0.21-0.21,0.51-0.21,0.72c-0.1,0.21-0.1,0.41-0.21,0.52c0,0.41-0.1,0.82-0.21,1.23
		c-0.1,0.51-0.21,0.92-0.31,1.33c0,0.41-0.1,0.82-0.1,1.13c0,0.31,0,0.41,0,0.51c0,0.21,0.1,0.31,0.1,0.31c0,0.1,0.1,0.1,0.1,0.1
		c0.1,0,0.21,0,0.21-0.1c0.21-0.21,0.31-0.41,0.41-0.51c0.1-0.21,0.21-0.31,0.31-0.51s0.21-0.41,0.31-0.62
		c0.21-0.41,0.41-0.82,0.72-1.33c0.21-0.41,0.41-0.92,0.62-1.44c0.21-0.42,0.41-0.83,0.51-1.24c0.21-0.41,0.31-0.82,0.41-1.13
		c0.1-0.21,0.21-0.41,0.31-0.62c0.1-0.1,0.21-0.21,0.31-0.31c0,0,0.1,0,0.21,0c0.1,0,0.1,0,0.21,0.1l0.1,0.1
		c0.1,0.1,0.1,0.21,0.1,0.31c0,0.1-0.1,0.31-0.21,0.62c-0.11,0.31-0.31,0.72-0.42,1.03c-0.1,0.41-0.31,0.72-0.41,1.03
		c-0.1,0.41-0.21,0.62-0.31,0.82c-0.1,0.21-0.21,0.31-0.31,0.51c-0.1,0.1-0.1,0.21-0.1,0.21c0,0.1-0.1,0.21-0.21,0.41
		c0,0.1-0.1,0.31-0.31,0.62c-0.1,0.21-0.21,0.51-0.41,0.72c-0.1,0.31-0.31,0.51-0.41,0.72c-0.21,0.31-0.31,0.41-0.41,0.51
		c-0.21,0.31-0.41,0.51-0.62,0.72c-0.21,0.21-0.41,0.31-0.51,0.41C62.74,204.26,62.63,204.37,62.63,204.37z"/>
	<path class="st6" d="M68.56,200.36c0.1,0,0.21-0.1,0.31-0.21c0.1-0.1,0.21-0.21,0.31-0.31c0-0.1,0.1-0.1,0.1-0.21
		c0-0.1-0.1-0.21-0.21-0.31c-0.1,0-0.31-0.1-0.51,0c-0.1,0-0.21,0.1-0.31,0.21c-0.1,0-0.21,0.1-0.31,0.31
		c-0.1,0.1-0.21,0.21-0.21,0.31c-0.1,0-0.1,0.1-0.1,0.1c0,0.1,0.1,0.1,0.21,0.1c0.1,0.1,0.21,0.1,0.41,0.1
		C68.35,200.46,68.45,200.36,68.56,200.36z M68.66,203.13c-0.21,0.21-0.51,0.21-0.72,0.31c-0.21,0-0.51-0.1-0.72-0.21
		c-0.21,0-0.41-0.21-0.62-0.41c-0.1-0.1-0.21-0.31-0.21-0.62c-0.1-0.21-0.1-0.51,0-0.92c0-0.41,0.1-0.72,0.31-1.13
		c0.21-0.31,0.42-0.62,0.72-0.92c0.21-0.31,0.51-0.51,0.82-0.62c0.1,0,0.21-0.1,0.31-0.1c0.1,0,0.31,0,0.41,0
		c0.21,0.1,0.41,0.1,0.51,0.21c0.1,0,0.21,0.1,0.31,0.21c0.1,0.1,0.21,0.21,0.21,0.31c0.1,0.21,0.1,0.31,0.1,0.41
		c-0.1,0.21-0.21,0.51-0.41,0.72c-0.21,0.31-0.51,0.51-0.82,0.72c-0.21,0.1-0.41,0.1-0.62,0.1c-0.21,0-0.41-0.1-0.62-0.21
		c-0.21,0-0.31,0-0.41,0.1c0,0.1,0,0.31-0.1,0.62c0,0.21,0,0.41,0.1,0.62c0.1,0.1,0.21,0.21,0.31,0.21c0.21,0.1,0.41,0.1,0.41,0.1
		c0.1,0,0.31-0.1,0.41-0.1c0.1-0.1,0.21-0.21,0.21-0.21c0.1,0,0.1,0,0.1-0.1c0.1,0,0.1,0,0.21-0.1c0-0.1,0.1-0.1,0.1-0.1
		c0.1,0,0.1-0.1,0.1-0.1c0.1,0,0.21,0.1,0.21,0.1c0.1,0.1,0.1,0.1,0.1,0.21c0.1,0,0.1,0.1,0,0.21c0,0.1-0.1,0.21-0.31,0.31
		C68.97,202.92,68.76,203.03,68.66,203.13z"/>
	<path class="st6" d="M71.99,200.66c0.1,0,0.31,0,0.31-0.1c0.1,0,0.21-0.1,0.31-0.21c0.21-0.21,0.31-0.41,0.31-0.62
		c0.1-0.21,0-0.41,0-0.51c-0.1,0-0.1,0-0.21,0c0,0,0,0-0.1,0c-0.1,0-0.21,0.1-0.31,0.1c-0.21,0.1-0.31,0.21-0.42,0.41
		c-0.1,0.1-0.21,0.21-0.31,0.31l-0.21,0.31c0.1,0,0.1,0,0.21,0c0-0.1,0,0,0.1,0v0.1c0.1,0.1,0.1,0.1,0.1,0.21
		C71.88,200.66,71.88,200.66,71.99,200.66z M71.37,203.64c-0.41,0-0.72-0.21-0.92-0.41c-0.31-0.31-0.41-0.72-0.41-1.13
		c0-0.31,0.1-0.72,0.21-1.03c0.1-0.41,0.31-0.72,0.41-1.03c0.21-0.41,0.41-0.72,0.62-0.92c0.21-0.21,0.51-0.41,0.72-0.51
		c0.1-0.1,0.21-0.1,0.21-0.1c0.1,0,0.21-0.11,0.31-0.11c0.1,0,0.21,0.11,0.31,0.11c0.21,0,0.21,0,0.31,0.1
		c0.21,0,0.31,0.1,0.41,0.21c0.1,0.1,0.21,0.31,0.21,0.51s0,0.31,0,0.31c0,0.1,0,0.21,0,0.31c-0.1,0.31-0.31,0.62-0.51,0.82
		c-0.1,0.21-0.41,0.41-0.62,0.62c-0.1,0-0.21,0-0.21,0c-0.1,0.1-0.21,0.1-0.31,0.1c-0.1,0-0.31-0.1-0.52-0.1
		c-0.1-0.1-0.21-0.21-0.31-0.31l-0.1-0.1l-0.1,0.1c0,0.21-0.1,0.41-0.1,0.62c-0.1,0.21-0.1,0.31-0.1,0.41c0,0.1,0,0.21,0,0.31
		c0,0.1,0.1,0.21,0.1,0.31c0,0,0.1,0,0.21,0.1c0,0,0.1,0,0.21,0c0.1,0,0.1,0,0.21,0h0.1c0.21-0.1,0.31-0.1,0.42-0.21
		c0.1-0.1,0.21-0.1,0.31-0.21c0.1-0.1,0.21-0.1,0.31-0.21c0.1,0,0.1,0,0.1,0c0-0.1,0.1-0.1,0.1-0.1c0.1,0,0.21,0,0.31,0
		c0.1,0.1,0.21,0.21,0.21,0.31c0,0-0.1,0.1-0.21,0.21c0,0.1-0.1,0.21-0.21,0.31c-0.1,0.1-0.21,0.1-0.21,0.1l-0.1,0.1h-0.1
		c-0.1,0.1-0.1,0.21-0.21,0.21h-0.1c0,0-0.1,0.1-0.31,0.21C71.78,203.54,71.58,203.64,71.37,203.64z"/>
	<path class="st6" d="M74.15,203.7c0-0.1-0.1-0.1-0.21-0.21c-0.1-0.1-0.21-0.21-0.21-0.31c-0.1-0.21-0.1-0.31-0.1-0.31
		c0-0.1,0.1-0.31,0.1-0.51c0.1-0.31,0.21-0.51,0.31-0.82c0.1-0.1,0.1-0.21,0.21-0.41c0-0.1,0-0.21,0.1-0.31
		c0-0.1,0.1-0.31,0.21-0.51c0.1-0.21,0.21-0.41,0.31-0.62c0-0.21,0.1-0.41,0.21-0.62c0.1-0.21,0.21-0.41,0.31-0.62
		c0.1-0.21,0.1-0.41,0.21-0.62s0.21-0.41,0.31-0.62c0.1-0.31,0.21-0.51,0.31-0.72c0.1-0.31,0.21-0.51,0.31-0.72
		c0-0.21,0.1-0.31,0.1-0.41c0-0.1,0-0.1,0-0.21c0.1,0,0.1,0,0.1,0c0.1-0.1,0.1-0.1,0.21-0.1h0.1c0.11,0,0.11,0.1,0.21,0.21
		c0.1,0.1,0.21,0.31,0.21,0.41c0,0.1-0.1,0.31-0.21,0.72c-0.1,0.41-0.31,0.82-0.62,1.33c-0.21,0.62-0.51,1.14-0.62,1.55
		c-0.21,0.41-0.31,0.62-0.41,0.82c0,0.21-0.1,0.31,0,0.31c0,0,0,0,0.1,0c0.1-0.1,0.21-0.21,0.41-0.31c0,0,0.1-0.1,0.31-0.21
		c0.1,0,0.21-0.1,0.31-0.21c0.1-0.1,0.21-0.1,0.21-0.1c0.1-0.1,0.21-0.1,0.31-0.21c0.1-0.1,0.21-0.1,0.21-0.1
		c0.21-0.1,0.31-0.1,0.41-0.1c0,0,0.1,0.1,0.21,0.21c0.1,0.1,0.1,0.21,0.1,0.31c-0.1,0.1-0.21,0.21-0.51,0.41
		c-0.1,0.1-0.31,0.21-0.62,0.31c-0.21,0.21-0.41,0.31-0.62,0.41c-0.21,0.1-0.31,0.21-0.31,0.21s0,0.1,0.1,0.21
		c0,0.1,0.1,0.21,0.21,0.31c0,0.21,0.1,0.31,0.21,0.51c0.1,0.1,0.1,0.21,0.21,0.31c0,0.21,0.21,0.31,0.31,0.41
		c0.21,0.1,0.41,0.1,0.62,0c0.1,0,0.21,0,0.31,0s0.21,0.1,0.21,0.21v0.1c0,0.1,0,0.21-0.1,0.31c-0.21,0.1-0.41,0.21-0.62,0.31
		c-0.21,0.1-0.31,0-0.52,0c-0.1-0.1-0.31-0.21-0.51-0.41c-0.1-0.1-0.41-0.41-0.72-0.82c0,0,0-0.1,0-0.21c-0.1,0-0.1-0.1-0.1-0.1
		c0-0.1-0.1-0.21-0.1-0.21c-0.1-0.1-0.1-0.21-0.1-0.21s0-0.1-0.1-0.1c0-0.1,0-0.1-0.1-0.1c-0.1-0.1-0.1,0-0.21,0.1
		c-0.1,0-0.1,0.1-0.21,0.21c0,0.1-0.1,0.31-0.1,0.41c-0.1,0.21-0.1,0.41-0.21,0.62c0,0.1,0,0.31,0,0.41c0,0.1,0,0.21-0.1,0.31
		C74.46,203.59,74.36,203.7,74.15,203.7z"/>
	<path class="st6" d="M81.79,203.42c0-0.1-0.1-0.1-0.1-0.21c-0.1,0-0.21-0.1-0.21-0.1c-0.1-0.1-0.21-0.21-0.21-0.21
		c0-0.1,0-0.21,0-0.31c0.1-0.1,0.1-0.1,0.1-0.1s0.1,0,0.1-0.1c0.1-0.1,0.1-0.21,0.21-0.31l0.1-0.1v-0.1c0.11,0,0.11,0,0.11-0.1
		c0.1,0,0.1-0.1,0.21-0.21c0.1,0,0.1-0.1,0.21-0.21c0.1,0,0.21-0.21,0.41-0.31c0.1-0.21,0.31-0.41,0.51-0.51
		c0.1-0.21,0.31-0.41,0.41-0.62c0.21-0.1,0.21-0.21,0.21-0.31h0.1c0,0,0-0.1,0.1-0.1c0,0,0.1,0,0.21-0.1c0-0.1,0.1-0.1,0.1-0.21
		c0.1,0,0.1-0.1,0.21-0.21c0.1-0.1,0.1-0.21,0.21-0.31c0.1-0.1,0.1-0.21,0.21-0.42c0.1-0.1,0.1-0.21,0.1-0.21c0-0.1,0-0.21,0-0.21
		s-0.1-0.1-0.31-0.1c-0.21-0.1-0.41-0.1-0.62-0.1c-0.31,0-0.51,0.21-0.82,0.41c-0.1,0-0.21,0-0.31,0.1c-0.1,0-0.21,0-0.31,0
		c0,0,0,0-0.1-0.1c0-0.1-0.1-0.1-0.1-0.21l-0.21-0.31l0.41-0.21c0.41-0.21,0.72-0.41,1.03-0.51c0.31-0.1,0.51-0.1,0.82,0
		c0.1,0,0.21,0,0.21,0c0.1,0,0.1,0,0.1,0c0.1,0,0.21,0.1,0.31,0.1c0.1,0.1,0.21,0.21,0.31,0.31c0.1,0.21,0.21,0.31,0.31,0.41
		c0.1,0.21,0.21,0.41,0.1,0.72c0,0.21-0.21,0.52-0.41,0.83c0,0-0.1,0.1-0.21,0.31c-0.21,0.21-0.31,0.31-0.51,0.51
		c-0.21,0.21-0.41,0.41-0.51,0.51c-0.21,0.21-0.31,0.31-0.31,0.31c-0.1,0.1-0.21,0.1-0.31,0.31c-0.1,0.1-0.31,0.31-0.41,0.41
		c-0.21,0.21-0.31,0.41-0.41,0.51c-0.1,0.1-0.21,0.21-0.1,0.21c-0.1,0,0,0,0,0c0.1,0,0.1,0,0.21,0c0.1-0.1,0.31-0.1,0.51-0.21
		c0.21,0,0.41-0.1,0.62-0.1c0.21,0,0.41,0,0.51,0c0.21,0,0.31,0,0.31,0s0,0.1,0,0c0.1,0,0.21-0.1,0.41,0c0.21,0,0.31,0,0.51,0.1
		c0.1,0,0.21,0,0.21,0.1c0.1,0,0.1,0,0.1,0.1l0.1,0.1c0.21,0.21,0.21,0.21,0.1,0.31c-0.1,0.1-0.41,0.1-0.72,0
		c-0.21,0-0.41,0-0.51,0.1c-0.1,0-0.1,0-0.21,0c-0.21,0-0.31,0-0.41,0s-0.31,0-0.41,0c-0.21,0-0.31,0.1-0.51,0.21
		c-0.1,0-0.21,0-0.41,0.1c-0.21,0-0.31,0.1-0.51,0.1c-0.21,0.1-0.41,0.1-0.51,0.1C81.9,203.42,81.9,203.42,81.79,203.42z"/>
	<polygon class="st6" points="116.22,225.73 116.22,220.29 116.83,220.29 119.35,224.42 119.05,224.42 121.47,220.29 122.07,220.29 
		122.07,225.73 121.37,225.73 121.37,221.4 121.57,221.4 119.35,225.13 118.95,225.13 116.83,221.4 117.03,221.4 117.03,225.73 	"/>
	<path class="st6" d="M125.04,225.08c0.2,0,0.5,0,0.71-0.1c0.2-0.2,0.3-0.3,0.5-0.6c0.1-0.2,0.1-0.4,0.1-0.71c0-0.3,0-0.6-0.1-0.81
		c-0.2-0.2-0.3-0.4-0.5-0.5c-0.2-0.1-0.5-0.2-0.71-0.2c-0.3,0-0.5,0.1-0.81,0.2c-0.2,0.1-0.3,0.3-0.5,0.5c-0.1,0.2-0.2,0.5-0.2,0.81
		c0,0.3,0.1,0.5,0.2,0.71c0.2,0.3,0.3,0.4,0.5,0.6C124.44,225.08,124.74,225.08,125.04,225.08z M125.04,225.78
		c-0.5,0-0.81-0.1-1.21-0.3c-0.3-0.2-0.5-0.4-0.71-0.71c-0.2-0.4-0.3-0.71-0.3-1.11c0-0.4,0.1-0.81,0.3-1.11
		c0.2-0.3,0.4-0.6,0.71-0.81c0.4-0.2,0.71-0.2,1.21-0.2c0.4,0,0.71,0,1.11,0.2c0.3,0.2,0.5,0.5,0.71,0.81c0.2,0.3,0.3,0.71,0.3,1.11
		c0,0.4-0.1,0.71-0.3,1.11c-0.2,0.3-0.4,0.5-0.71,0.71C125.74,225.68,125.44,225.78,125.04,225.78z"/>
	<path class="st6" d="M130.1,221.55c0.3,0,0.6,0,0.91,0.2c0.2,0.1,0.4,0.3,0.6,0.5c0.1,0.3,0.2,0.6,0.2,1.11v2.32h-0.81v-2.32
		c0-0.4-0.1-0.71-0.3-0.91c-0.2-0.2-0.4-0.3-0.81-0.3c-0.2,0-0.5,0.1-0.71,0.2s-0.3,0.2-0.4,0.4c-0.1,0.3-0.2,0.5-0.2,0.81v2.12
		h-0.81v-4.13h0.81v1.11l-0.1-0.3c0.1-0.3,0.3-0.5,0.6-0.6C129.4,221.55,129.7,221.55,130.1,221.55z"/>
	<polygon class="st6" points="154.62,225.73 154.62,220.89 152.7,220.89 152.7,220.29 157.24,220.29 157.24,220.89 155.43,220.89 
		155.43,225.73 	"/>
	<path class="st6" d="M159.3,225.78c-0.3,0-0.6-0.1-0.91-0.2c-0.3-0.1-0.5-0.3-0.6-0.6c-0.21-0.3-0.31-0.6-0.31-1.01v-2.42h0.81
		v2.32c0,0.4,0.1,0.71,0.3,0.91c0.2,0.2,0.5,0.3,0.81,0.3c0.3,0,0.5,0,0.71-0.1c0.2-0.1,0.3-0.3,0.4-0.5c0.2-0.2,0.2-0.5,0.2-0.81
		v-2.12h0.81v4.13h-0.81v-1.11l0.2,0.3c-0.2,0.3-0.4,0.5-0.71,0.71C160.01,225.68,159.7,225.78,159.3,225.78z"/>
	<path class="st6" d="M164.37,225.78c-0.4,0-0.81-0.1-1.11-0.3c-0.4-0.2-0.61-0.4-0.81-0.71c-0.2-0.3-0.3-0.71-0.3-1.11
		c0-0.4,0.1-0.81,0.3-1.11c0.2-0.3,0.41-0.6,0.71-0.81c0.3-0.2,0.71-0.2,1.11-0.2c0.4,0,0.71,0,1.11,0.2c0.3,0.2,0.5,0.4,0.71,0.81
		c0.2,0.3,0.2,0.71,0.2,1.11v0.1v0.1h-3.53v-0.5h3.13l-0.3,0.2c0-0.3,0-0.5-0.1-0.71c-0.1-0.3-0.3-0.4-0.5-0.5
		c-0.2-0.2-0.4-0.2-0.71-0.2c-0.3,0-0.5,0-0.71,0.2c-0.2,0.1-0.4,0.2-0.5,0.5c-0.1,0.2-0.2,0.4-0.2,0.71v0.1c0,0.3,0.1,0.5,0.2,0.81
		c0.2,0.2,0.3,0.3,0.6,0.5c0.2,0.1,0.5,0.1,0.81,0.1c0.2,0,0.4,0,0.6-0.1c0.2-0.1,0.4-0.2,0.6-0.4l0.4,0.5
		c-0.2,0.2-0.4,0.4-0.71,0.5C165.08,225.68,164.77,225.78,164.37,225.78z"/>
	<polygon class="st6" points="188.47,225.73 186.65,220.29 187.46,220.29 189.18,225.33 188.67,225.33 190.49,220.29 191.19,220.29 
		192.9,225.33 192.5,225.33 194.22,220.29 195.03,220.29 193.11,225.73 192.3,225.73 190.69,221.1 190.89,221.1 189.28,225.73 	"/>
	<path class="st6" d="M196.97,225.78c-0.5,0-0.91-0.1-1.21-0.3c-0.3-0.2-0.6-0.4-0.81-0.71c-0.2-0.3-0.3-0.71-0.3-1.11
		c0-0.4,0.1-0.81,0.3-1.11c0.2-0.3,0.4-0.6,0.71-0.81c0.4-0.2,0.71-0.2,1.11-0.2c0.4,0,0.81,0,1.11,0.2s0.5,0.4,0.71,0.81
		c0.2,0.3,0.3,0.71,0.3,1.11v0.1v0.1h-3.63v-0.5h3.23l-0.31,0.2c0-0.3-0.1-0.5-0.2-0.71c-0.1-0.3-0.3-0.4-0.5-0.5
		c-0.2-0.2-0.4-0.2-0.71-0.2c-0.2,0-0.5,0-0.71,0.2c-0.2,0.1-0.3,0.2-0.5,0.5c-0.1,0.2-0.1,0.4-0.1,0.71v0.1c0,0.3,0,0.5,0.2,0.81
		c0.1,0.2,0.3,0.3,0.5,0.5c0.2,0.1,0.5,0.1,0.81,0.1c0.2,0,0.5,0,0.71-0.1c0.2-0.1,0.3-0.2,0.5-0.4l0.41,0.5
		c-0.21,0.2-0.41,0.4-0.71,0.5C197.58,225.68,197.27,225.78,196.97,225.78z"/>
	<path class="st6" d="M202.63,225.75v-1.11v-0.91v-1.01v-2.82h0.71v5.84H202.63z M201.35,225.08c0.2,0,0.5,0,0.71-0.1
		c0.2-0.2,0.4-0.3,0.5-0.6c0.1-0.2,0.2-0.4,0.2-0.71c0-0.3-0.1-0.6-0.2-0.81c-0.1-0.2-0.3-0.4-0.5-0.5c-0.2-0.1-0.5-0.2-0.71-0.2
		c-0.3,0-0.5,0.1-0.71,0.2c-0.2,0.1-0.4,0.3-0.5,0.5c-0.2,0.2-0.2,0.5-0.2,0.81c0,0.3,0,0.5,0.2,0.71c0.1,0.3,0.3,0.4,0.5,0.6
		C200.84,225.08,201.04,225.08,201.35,225.08z M201.26,225.78c-0.4,0-0.71-0.1-1.11-0.3c-0.3-0.1-0.5-0.4-0.71-0.71
		c-0.2-0.3-0.3-0.71-0.3-1.11c0-0.5,0.1-0.81,0.3-1.11c0.2-0.4,0.4-0.6,0.71-0.81c0.4-0.2,0.71-0.2,1.11-0.2c0.4,0,0.71,0,1.01,0.2
		c0.3,0.1,0.5,0.4,0.6,0.71c0.2,0.3,0.3,0.71,0.3,1.21c0,0.4-0.1,0.81-0.2,1.11c-0.2,0.4-0.4,0.6-0.71,0.81
		C201.97,225.68,201.66,225.78,201.26,225.78z"/>
	<polygon class="st6" points="225.7,225.73 225.7,220.89 223.79,220.89 223.79,220.29 228.32,220.29 228.32,220.89 226.41,220.89 
		226.41,225.73 	"/>
	<path class="st6" d="M230.98,221.61c0.3,0,0.6,0,0.91,0.2c0.2,0.1,0.4,0.3,0.6,0.5c0.1,0.3,0.2,0.6,0.2,1.11v2.32h-0.71v-2.32
		c0-0.4-0.1-0.71-0.3-0.91c-0.2-0.2-0.5-0.3-0.91-0.3c-0.2,0-0.5,0.1-0.71,0.2c-0.2,0.1-0.3,0.2-0.4,0.4c-0.1,0.3-0.2,0.5-0.2,0.81
		v2.12h-0.71v-5.84h0.71v2.82l-0.1-0.3c0.1-0.3,0.3-0.5,0.6-0.6C230.27,221.61,230.57,221.61,230.98,221.61z"/>
	<path class="st6" d="M235.42,225.78c-0.3,0-0.6-0.1-0.91-0.2c-0.3-0.1-0.5-0.3-0.6-0.6c-0.2-0.3-0.2-0.6-0.2-1.01v-2.42h0.71v2.32
		c0,0.4,0.1,0.71,0.3,0.91c0.2,0.2,0.5,0.3,0.81,0.3c0.3,0,0.5,0,0.71-0.1c0.2-0.1,0.4-0.3,0.5-0.5c0.1-0.2,0.1-0.5,0.1-0.81v-2.12
		h0.81v4.13h-0.71v-1.11l0.1,0.3c-0.2,0.3-0.4,0.5-0.6,0.71C236.13,225.68,235.83,225.78,235.42,225.78z"/>
	<path class="st6" d="M263.38,225.73h-0.81v-5.44h3.84v0.6h-3.03V225.73z M263.26,222.89h2.83v0.6h-2.83V222.89z"/>
	<path class="st6" d="M267.11,225.68v-4.13h0.71v1.11l-0.1-0.3c0.1-0.2,0.3-0.5,0.6-0.6c0.3-0.2,0.6-0.2,1.01-0.2v0.71h-0.1h-0.11
		c-0.4,0-0.71,0.1-0.91,0.3c-0.3,0.3-0.4,0.6-0.4,1.11v2.02H267.11z"/>
	<path class="st6" d="M270.47,220.96c-0.09,0-0.28-0.09-0.37-0.09c-0.09-0.09-0.09-0.28-0.09-0.37s0-0.19,0.09-0.28
		s0.19-0.19,0.37-0.19c0.09,0,0.28,0.09,0.37,0.19c0.09,0,0.09,0.19,0.09,0.28s0,0.28-0.09,0.37
		C270.75,220.86,270.56,220.96,270.47,220.96z M270.07,225.68v-4.13h0.81v4.13H270.07z"/>
	<path class="st6" d="M298.67,225.83c-0.4,0-0.81-0.1-1.21-0.2c-0.4-0.1-0.71-0.3-0.91-0.5l0.3-0.6c0.2,0.2,0.5,0.3,0.81,0.5
		c0.3,0.1,0.6,0.1,1.01,0.1c0.3,0,0.6,0,0.81-0.1c0.21,0,0.31-0.1,0.41-0.3c0.1-0.1,0.2-0.2,0.2-0.4c0-0.2-0.1-0.3-0.2-0.5
		c-0.2-0.1-0.3-0.2-0.51-0.2c-0.2-0.1-0.4-0.2-0.71-0.2c-0.2-0.1-0.4-0.1-0.71-0.2c-0.2-0.1-0.4-0.2-0.6-0.3
		c-0.2-0.1-0.4-0.2-0.5-0.4c-0.1-0.2-0.2-0.4-0.2-0.71s0.1-0.6,0.3-0.81c0.1-0.2,0.3-0.4,0.6-0.6c0.4-0.1,0.71-0.2,1.21-0.2
		c0.3,0,0.71,0,1.01,0.1c0.3,0.1,0.6,0.2,0.81,0.4l-0.3,0.6c-0.2-0.1-0.5-0.3-0.71-0.3c-0.31-0.1-0.51-0.1-0.81-0.1s-0.5,0-0.71,0.1
		s-0.4,0.2-0.5,0.3c-0.1,0.1-0.1,0.3-0.1,0.4c0,0.2,0.1,0.4,0.2,0.5s0.3,0.2,0.5,0.3c0.2,0,0.4,0.1,0.6,0.2c0.2,0,0.5,0.1,0.71,0.1
		c0.31,0.1,0.51,0.2,0.71,0.3c0.2,0.1,0.3,0.3,0.4,0.4c0.2,0.2,0.2,0.5,0.2,0.81c0,0.2-0.1,0.5-0.2,0.71c-0.2,0.3-0.4,0.4-0.71,0.6
		C299.59,225.73,299.18,225.83,298.67,225.83z"/>
	<path class="st6" d="M302.79,225.71c-0.3,0-0.6-0.1-0.81-0.2c-0.3-0.1-0.5-0.2-0.6-0.4c-0.1-0.2-0.2-0.4-0.2-0.6
		c0-0.3,0.1-0.5,0.2-0.6c0.1-0.2,0.3-0.4,0.5-0.5c0.3-0.1,0.6-0.1,1.01-0.1h1.31v0.5h-1.31c-0.3,0-0.6,0.1-0.71,0.2
		c-0.2,0.1-0.2,0.3-0.2,0.4c0,0.2,0.1,0.4,0.2,0.5c0.2,0.2,0.4,0.2,0.71,0.2c0.3,0,0.5,0,0.71-0.2c0.2-0.1,0.4-0.3,0.5-0.5l0.1,0.5
		c-0.1,0.2-0.2,0.4-0.5,0.6C303.5,225.61,303.19,225.71,302.79,225.71z M304.08,225.68v-0.81v-0.2v-1.51c0-0.3-0.1-0.6-0.3-0.71
		c-0.2-0.2-0.5-0.3-0.81-0.3c-0.3,0-0.5,0-0.71,0.1c-0.3,0.1-0.5,0.2-0.6,0.4l-0.4-0.6c0.3-0.2,0.5-0.3,0.81-0.4
		c0.3-0.1,0.6-0.1,1.01-0.1c0.5,0,1.01,0.1,1.31,0.4c0.31,0.2,0.41,0.71,0.41,1.21v2.52H304.08z"/>
	<path class="st6" d="M305.3,222.29v-0.6h2.72v0.6H305.3z M307.38,225.81c-0.5,0-0.81-0.1-1.01-0.3c-0.2-0.3-0.4-0.6-0.4-1.01v-3.83
		h0.81v3.83c0,0.2,0.1,0.4,0.2,0.5c0.1,0.1,0.2,0.2,0.4,0.2c0.3,0,0.5-0.1,0.6-0.2l0.3,0.5c-0.1,0.1-0.3,0.2-0.4,0.2
		C307.68,225.81,307.48,225.81,307.38,225.81z"/>
	<path class="st6" d="M333.04,225.83c-0.4,0-0.81-0.1-1.21-0.2c-0.3-0.1-0.6-0.3-0.91-0.5l0.3-0.6c0.2,0.2,0.5,0.3,0.81,0.5
		c0.4,0.1,0.71,0.1,1.01,0.1c0.4,0,0.6,0,0.81-0.1c0.2,0,0.4-0.1,0.5-0.3c0-0.1,0.1-0.2,0.1-0.4c0-0.2-0.1-0.3-0.2-0.5
		c-0.1-0.1-0.3-0.2-0.5-0.2c-0.2-0.1-0.4-0.2-0.6-0.2c-0.2-0.1-0.5-0.1-0.71-0.2c-0.3-0.1-0.5-0.2-0.71-0.3
		c-0.2-0.1-0.3-0.2-0.4-0.4c-0.2-0.2-0.2-0.4-0.2-0.71s0-0.6,0.2-0.81c0.1-0.2,0.4-0.4,0.71-0.6c0.3-0.1,0.71-0.2,1.21-0.2
		c0.3,0,0.6,0,0.91,0.1c0.3,0.1,0.6,0.2,0.81,0.4l-0.2,0.6c-0.3-0.1-0.5-0.3-0.81-0.3c-0.2-0.1-0.5-0.1-0.71-0.1
		c-0.3,0-0.6,0-0.81,0.1c-0.2,0.1-0.3,0.2-0.4,0.3c-0.1,0.1-0.2,0.3-0.2,0.4c0,0.2,0.1,0.4,0.2,0.5c0.1,0.1,0.3,0.2,0.5,0.3
		c0.2,0,0.4,0.1,0.6,0.2c0.3,0,0.5,0.1,0.81,0.1c0.2,0.1,0.4,0.2,0.6,0.3c0.2,0.1,0.4,0.3,0.51,0.4c0.1,0.2,0.2,0.5,0.2,0.81
		c0,0.2-0.1,0.5-0.31,0.71c-0.1,0.3-0.3,0.4-0.71,0.6C333.95,225.73,333.55,225.83,333.04,225.83z"/>
	<path class="st6" d="M337.61,225.78c-0.3,0-0.6-0.1-0.91-0.2c-0.3-0.1-0.5-0.3-0.6-0.6c-0.2-0.3-0.2-0.6-0.2-1.01v-2.42h0.71v2.32
		c0,0.4,0.1,0.71,0.3,0.91c0.2,0.2,0.5,0.3,0.81,0.3s0.5,0,0.71-0.1c0.2-0.1,0.4-0.3,0.5-0.5c0.1-0.2,0.1-0.5,0.1-0.81v-2.12h0.81
		v4.13h-0.71v-1.11l0.1,0.3c-0.2,0.3-0.4,0.5-0.6,0.71C338.31,225.68,338.01,225.78,337.61,225.78z"/>
	<path class="st6" d="M343.06,221.55c0.4,0,0.71,0,0.91,0.2c0.3,0.1,0.5,0.3,0.6,0.5c0.2,0.3,0.2,0.6,0.2,1.11v2.32h-0.71v-2.32
		c0-0.4-0.1-0.71-0.3-0.91c-0.2-0.2-0.5-0.3-0.81-0.3s-0.5,0.1-0.71,0.2s-0.4,0.2-0.5,0.4c-0.1,0.3-0.1,0.5-0.1,0.81v2.12h-0.81
		v-4.13h0.71v1.11l-0.1-0.3c0.1-0.3,0.3-0.5,0.6-0.6C342.36,221.55,342.66,221.55,343.06,221.55z"/>
	<line class="st7" x1="34.99" y1="247.47" x2="95.31" y2="247.47"/>
</g>
<g>
	<defs>
		<rect id="SVGID_13_" x="-25.39" y="-5.67" width="475.44" height="615.76"/>
	</defs>
	<clipPath id="SVGID_14_">
		<use xlink:href="#SVGID_13_"  style="overflow:visible;"/>
	</clipPath>
	<line class="st8" x1="34.99" y1="267.73" x2="95.31" y2="267.73"/>
</g>
<g>
	<defs>
		<rect id="SVGID_15_" x="-25.39" y="-5.67" width="475.44" height="615.76"/>
	</defs>
	<clipPath id="SVGID_16_">
		<use xlink:href="#SVGID_15_"  style="overflow:visible;"/>
	</clipPath>
	<line class="st9" x1="34.99" y1="287.53" x2="95.31" y2="287.53"/>
</g>
<g>
	<defs>
		<rect id="SVGID_17_" x="-25.39" y="-5.67" width="475.44" height="615.76"/>
	</defs>
	<clipPath id="SVGID_18_">
		<use xlink:href="#SVGID_17_"  style="overflow:visible;"/>
	</clipPath>
	<line class="st10" x1="34.99" y1="307.23" x2="95.31" y2="307.23"/>
</g>
<g>
	<defs>
		<rect id="SVGID_19_" x="-25.39" y="-5.67" width="475.44" height="615.76"/>
	</defs>
	<clipPath id="SVGID_20_">
		<use xlink:href="#SVGID_19_"  style="overflow:visible;"/>
	</clipPath>
	<path class="st11" d="M62.63,334.63c-0.21,0-0.31,0-0.31-0.1c-0.1,0-0.21-0.1-0.21-0.21c-0.1,0-0.1-0.1-0.21-0.21
		c-0.1-0.1-0.1-0.21-0.1-0.31c0-0.31-0.11-0.51-0.11-0.82c0-0.31,0-0.62,0.11-1.13c0-0.31,0-0.72,0.1-1.03
		c0.1-0.31,0.21-0.62,0.21-0.92c0.1-0.21,0.21-0.41,0.21-0.62c0.1-0.1,0.1-0.21,0-0.21c0,0,0,0.1-0.1,0.21
		c-0.1,0.1-0.1,0.21-0.21,0.41c-0.1,0.1-0.1,0.31-0.21,0.41c-0.11,0.21-0.21,0.31-0.21,0.41c-0.1,0.31-0.31,0.51-0.41,0.82
		c-0.21,0.31-0.31,0.62-0.51,0.93c-0.1,0.21-0.31,0.51-0.41,0.72c-0.1,0-0.21,0.21-0.31,0.31c-0.1,0.21-0.21,0.31-0.31,0.51
		c-0.1,0.21-0.21,0.31-0.41,0.41c-0.1,0.21-0.31,0.31-0.51,0.31c-0.21,0-0.31,0-0.51-0.1l-0.1-0.1c-0.1-0.1-0.1-0.21-0.21-0.21
		c0-0.1,0-0.21,0-0.31c0-0.1,0-0.31,0-0.62c0.1-0.21,0.1-0.51,0.1-0.82c0-0.31,0.1-0.62,0.1-0.83c0.1-0.31,0.1-0.51,0.1-0.72
		c0.1-0.62,0.21-1.13,0.31-1.74c0.21-0.51,0.31-1.13,0.41-1.74c0.1-0.1,0.1-0.31,0.21-0.51c0-0.21,0.1-0.41,0.1-0.62
		c0.1-0.21,0.1-0.31,0.21-0.41c0.1-0.1,0.21-0.1,0.31,0c0.1,0,0.21,0,0.31,0.1c0,0.1,0.1,0.21,0.21,0.41c0,0.21,0,0.41-0.1,0.72
		c-0.21,0.41-0.31,0.92-0.51,1.54c-0.21,0.62-0.31,1.33-0.41,2.16c-0.1,0.21-0.1,0.41-0.1,0.72c-0.1,0.31-0.1,0.52-0.1,0.83
		c-0.1,0.21-0.1,0.41-0.1,0.62s0,0.31,0,0.31c0.1,0,0.1-0.1,0.21-0.21c0.21-0.1,0.31-0.21,0.31-0.41c0.41-0.62,0.72-1.24,1.13-1.85
		c0.31-0.62,0.62-1.23,0.92-1.85c0.21-0.31,0.31-0.51,0.42-0.82c0.21-0.31,0.31-0.62,0.51-0.82c0.1-0.31,0.21-0.51,0.41-0.72
		c0.1-0.21,0.21-0.41,0.31-0.51c0.1-0.21,0.1-0.31,0.21-0.31c0.1,0,0.31,0.1,0.41,0.1c0.1,0.1,0.21,0.21,0.21,0.41
		c0,0,0.1,0.1,0,0.21c0,0.1,0,0.21,0,0.31c0,0-0.1,0.21-0.1,0.31c-0.1,0.21-0.21,0.41-0.21,0.72c-0.1,0.21-0.21,0.41-0.21,0.62
		c-0.1,0.21-0.1,0.41-0.21,0.62c0,0.31-0.1,0.72-0.21,1.13c-0.1,0.51-0.21,0.92-0.31,1.33c0,0.52-0.1,0.83-0.1,1.14s0,0.51,0,0.62
		c0,0.1,0.1,0.21,0.1,0.31l0.1,0.1c0.1,0,0.21-0.1,0.21-0.21c0.21-0.21,0.31-0.31,0.41-0.51c0.1-0.1,0.21-0.31,0.31-0.51
		c0.1-0.1,0.21-0.31,0.31-0.62c0.21-0.31,0.41-0.82,0.72-1.23c0.21-0.51,0.41-1.03,0.62-1.44c0.21-0.51,0.41-0.92,0.51-1.33
		c0.21-0.41,0.31-0.82,0.41-1.03c0.1-0.31,0.21-0.51,0.31-0.72c0.1-0.1,0.21-0.21,0.31-0.21c0-0.1,0.1-0.1,0.21-0.1
		c0.1,0,0.1,0,0.21,0.1c0,0,0.1,0.1,0.1,0.21c0.1,0,0.1,0.1,0.1,0.21c0,0.21-0.1,0.41-0.21,0.72c-0.11,0.31-0.31,0.62-0.42,0.92
		c-0.1,0.41-0.31,0.72-0.41,1.13c-0.1,0.31-0.21,0.51-0.31,0.72c-0.1,0.21-0.21,0.41-0.31,0.51c-0.1,0.1-0.1,0.21-0.1,0.31
		c0,0-0.1,0.1-0.21,0.31c0,0.1-0.1,0.41-0.31,0.62c-0.1,0.21-0.21,0.52-0.41,0.72c-0.1,0.31-0.31,0.51-0.41,0.82
		c-0.21,0.21-0.31,0.31-0.41,0.51c-0.21,0.21-0.41,0.41-0.62,0.62c-0.21,0.21-0.41,0.31-0.51,0.41
		C62.74,334.63,62.63,334.63,62.63,334.63z"/>
	<path class="st11" d="M68.56,330.61c0.1,0,0.21-0.1,0.31-0.21c0.1,0,0.21-0.1,0.31-0.21c0-0.1,0.1-0.21,0.1-0.31
		c0-0.1-0.1-0.21-0.21-0.21c-0.1-0.1-0.31-0.1-0.51-0.1c-0.1,0-0.21,0.1-0.31,0.21c-0.1,0.1-0.21,0.21-0.31,0.31
		c-0.1,0.1-0.21,0.21-0.21,0.31c-0.1,0.1-0.1,0.1-0.1,0.21c0,0,0.1,0,0.21,0.1c0.1,0,0.21,0,0.41,0
		C68.35,330.72,68.45,330.72,68.56,330.61z M68.66,333.39c-0.21,0.21-0.51,0.31-0.72,0.31c-0.21,0-0.51,0-0.72-0.1
		c-0.21-0.1-0.41-0.31-0.62-0.51c-0.1-0.1-0.21-0.31-0.21-0.62c-0.1-0.21-0.1-0.51,0-0.93c0-0.41,0.1-0.72,0.31-1.13
		c0.21-0.31,0.42-0.62,0.72-0.92c0.21-0.31,0.51-0.41,0.82-0.51c0.1-0.1,0.21-0.21,0.31-0.21c0.1,0,0.31,0,0.41,0.1
		c0.21,0,0.41,0,0.51,0.1c0.1,0,0.21,0.1,0.31,0.21c0.1,0.1,0.21,0.21,0.21,0.41c0.1,0.1,0.1,0.21,0.1,0.31
		c-0.1,0.21-0.21,0.51-0.41,0.82c-0.21,0.21-0.51,0.51-0.82,0.62c-0.21,0.1-0.41,0.1-0.62,0.1c-0.21,0-0.41,0-0.62-0.1
		c-0.21-0.1-0.31-0.1-0.41,0c0,0.1,0,0.31-0.1,0.62c0,0.31,0,0.51,0.1,0.62s0.21,0.21,0.31,0.31c0.21,0,0.41,0,0.41,0
		c0.1,0,0.31,0,0.41-0.1c0.1-0.1,0.21-0.1,0.21-0.21c0.1,0,0.1,0,0.1,0c0.1-0.1,0.1-0.1,0.21-0.21l0.1-0.1c0.1,0,0.1,0,0.1,0
		c0.1,0,0.21,0,0.21,0.1c0.1,0,0.1,0.1,0.1,0.1c0.1,0,0.1,0.1,0,0.21c0,0.1-0.1,0.21-0.31,0.41
		C68.97,333.19,68.76,333.29,68.66,333.39z"/>
	<path class="st11" d="M71.99,331.01c0.1,0,0.31-0.1,0.31-0.1c0.1-0.1,0.21-0.21,0.31-0.31c0.21-0.21,0.31-0.41,0.31-0.62
		c0.1-0.21,0-0.41,0-0.51c-0.1,0-0.1,0-0.21,0c0,0,0,0-0.1,0c-0.1,0-0.21,0.1-0.31,0.21c-0.21,0.1-0.31,0.21-0.42,0.31
		c-0.1,0.1-0.21,0.21-0.31,0.41l-0.21,0.21c0.1,0,0.1,0,0.21,0c0,0,0,0,0.1,0c0,0,0,0.1,0,0.21c0.1,0,0.1,0.1,0.1,0.1
		C71.88,330.91,71.88,331.01,71.99,331.01z M71.37,333.89c-0.41,0-0.72-0.1-0.92-0.41c-0.31-0.31-0.41-0.72-0.41-1.13
		c0-0.31,0.1-0.62,0.21-1.03c0.1-0.31,0.31-0.72,0.41-1.03c0.21-0.31,0.41-0.62,0.62-0.92c0.21-0.21,0.51-0.41,0.72-0.51
		c0.1,0,0.21-0.1,0.21-0.1c0.1,0,0.21,0,0.31,0c0.1,0,0.21,0,0.31,0c0.21,0,0.21,0.1,0.31,0.1c0.21,0,0.31,0.1,0.41,0.21
		c0.1,0.21,0.21,0.31,0.21,0.62c0,0.1,0,0.21,0,0.31c0,0,0,0.1,0,0.31c-0.1,0.21-0.31,0.51-0.51,0.72c-0.1,0.31-0.41,0.51-0.62,0.62
		c-0.1,0-0.21,0.11-0.21,0.11c-0.1,0-0.21,0-0.31,0c-0.1,0-0.31,0-0.52-0.11c-0.1,0-0.21-0.1-0.31-0.21l-0.1-0.1l-0.1,0.1
		c0,0.21-0.1,0.42-0.1,0.52c-0.1,0.21-0.1,0.31-0.1,0.51c0,0,0,0.1,0,0.21c0,0.1,0.1,0.21,0.1,0.31c0,0,0.1,0.1,0.21,0.1
		c0,0,0.1,0,0.21,0c0.1,0,0.1,0,0.21,0h0.1c0.21-0.1,0.31-0.1,0.42-0.21c0.1,0,0.21-0.1,0.31-0.21c0.1-0.1,0.21-0.1,0.31-0.21
		c0.1,0,0.1,0,0.1,0l0.1-0.1c0.1,0,0.21,0,0.31,0.1c0.1,0,0.21,0.1,0.21,0.21c0,0.1-0.1,0.1-0.21,0.21c0,0.1-0.1,0.21-0.21,0.31
		c-0.1,0.1-0.21,0.1-0.21,0.21h-0.1c0,0-0.1,0-0.1,0.1c-0.1,0-0.1,0.1-0.21,0.1h-0.1c0,0.1-0.1,0.1-0.31,0.21
		C71.78,333.89,71.58,333.89,71.37,333.89z"/>
	<path class="st11" d="M74.15,333.96c0,0-0.1-0.1-0.21-0.21c-0.1-0.1-0.21-0.21-0.21-0.31c-0.1-0.1-0.1-0.21-0.1-0.31
		c0-0.1,0.1-0.31,0.1-0.51c0.1-0.21,0.21-0.51,0.31-0.83c0.1-0.1,0.1-0.21,0.21-0.31c0-0.21,0-0.31,0.1-0.41
		c0-0.1,0.1-0.31,0.21-0.51c0.1-0.21,0.21-0.41,0.31-0.62c0-0.21,0.1-0.41,0.21-0.62c0.1-0.21,0.21-0.41,0.31-0.62
		c0.1-0.21,0.1-0.41,0.21-0.62c0.1-0.21,0.21-0.41,0.31-0.62c0.1-0.21,0.21-0.51,0.31-0.72c0.1-0.31,0.21-0.51,0.31-0.72
		c0-0.21,0.1-0.31,0.1-0.41c0-0.1,0-0.1,0-0.21c0.1,0,0.1,0,0.1,0c0.1,0,0.1-0.1,0.21-0.1h0.1c0.11,0,0.11,0.1,0.21,0.21
		c0.1,0.21,0.21,0.31,0.21,0.41c0,0.1-0.1,0.41-0.21,0.72c-0.1,0.41-0.31,0.82-0.62,1.33c-0.21,0.62-0.51,1.13-0.62,1.54
		c-0.21,0.41-0.31,0.72-0.41,0.82c0,0.21-0.1,0.31,0,0.31c0,0,0,0,0.1,0c0.1-0.1,0.21-0.1,0.41-0.21c0-0.1,0.1-0.1,0.31-0.21
		c0.1-0.1,0.21-0.21,0.31-0.31c0.1,0,0.21-0.1,0.21-0.1c0.1-0.1,0.21-0.1,0.31-0.21c0.1,0,0.21-0.1,0.21-0.1
		c0.21-0.1,0.31-0.1,0.41-0.1c0,0,0.1,0.1,0.21,0.21c0.1,0.1,0.1,0.21,0.1,0.31c-0.1,0.1-0.21,0.21-0.51,0.41
		c-0.1,0.1-0.31,0.21-0.62,0.41c-0.21,0.1-0.41,0.21-0.62,0.31c-0.21,0.21-0.31,0.21-0.31,0.31c0,0,0,0,0.1,0.1
		c0,0.21,0.1,0.31,0.21,0.42c0,0.1,0.1,0.21,0.21,0.41c0.1,0.1,0.1,0.21,0.21,0.31c0,0.21,0.21,0.41,0.31,0.51
		c0.21,0,0.41,0.1,0.62,0c0.1-0.1,0.21-0.1,0.31-0.1s0.21,0.1,0.21,0.21c0,0.1,0,0.1,0,0.21c0,0,0,0.1-0.1,0.21
		c-0.21,0.1-0.41,0.21-0.62,0.31c-0.21,0.1-0.31,0.1-0.52,0c-0.1-0.1-0.31-0.21-0.51-0.31c-0.1-0.21-0.41-0.51-0.72-0.92v-0.1
		c-0.1-0.1-0.1-0.21-0.1-0.21c0-0.1-0.1-0.1-0.1-0.21c-0.1-0.1-0.1-0.1-0.1-0.1c0-0.1,0-0.1-0.1-0.21c0,0,0-0.11-0.1-0.11
		c-0.1,0-0.1,0-0.21,0.11c-0.1,0.1-0.1,0.1-0.21,0.31c0,0.1-0.1,0.21-0.1,0.41c-0.1,0.1-0.1,0.31-0.21,0.51c0,0.21,0,0.31,0,0.41
		c0,0.1,0,0.21-0.1,0.31C74.46,333.85,74.36,333.96,74.15,333.96z"/>
	<path class="st11" d="M82.81,333.79c-0.21,0-0.41-0.1-0.62-0.1c-0.21-0.1-0.31-0.21-0.42-0.21c-0.1-0.1-0.21-0.21-0.21-0.31
		c0-0.21,0.1-0.21,0.1-0.31c0.1,0,0.21,0,0.42,0c0.31,0.1,0.62,0.1,0.92,0c0.31,0,0.62-0.1,0.92-0.21c0.21-0.1,0.51-0.21,0.62-0.41
		c0.21-0.21,0.41-0.41,0.31-0.62c0-0.21-0.1-0.41-0.31-0.62c-0.21,0-0.31-0.1-0.51-0.21c-0.21,0-0.31-0.1-0.51-0.1
		c-0.21-0.1-0.31-0.1-0.41-0.1c-0.1,0-0.21,0-0.31,0c0,0-0.1,0-0.21-0.1c-0.1-0.1-0.1-0.1-0.21-0.21c0-0.1,0-0.21-0.1-0.21l0.1-0.1
		c0.1-0.1,0.21-0.21,0.41-0.31c0.21-0.1,0.51-0.31,0.92-0.51c0.31-0.1,0.62-0.31,0.82-0.41c0.21-0.1,0.31-0.21,0.41-0.31
		c0.21-0.1,0.31-0.1,0.31-0.21c0.21-0.21,0.21-0.31,0.21-0.41c0,0-0.1-0.1-0.31-0.1s-0.41,0-0.62,0c-0.1,0-0.21,0-0.21,0s0,0-0.1,0
		c0,0-0.1,0-0.21,0c-0.21,0-0.31,0.1-0.51,0.1c-0.1,0-0.21,0.1-0.21,0.1s0,0-0.1,0.1c-0.1,0-0.21,0.1-0.31,0.1s-0.1,0-0.21,0
		l-0.1-0.1c-0.1-0.1-0.1-0.21-0.21-0.31c0-0.1,0-0.1,0-0.21c0,0,0.1-0.1,0.21-0.1c0.1-0.1,0.21-0.21,0.31-0.21
		c0.1-0.1,0.21-0.1,0.31-0.21c0.21,0,0.31-0.1,0.51-0.1c0.31,0,0.51,0,0.72,0c0.21,0,0.41,0,0.51,0c0.41,0,0.72,0.1,0.92,0.31
		c0.21,0.1,0.31,0.41,0.41,0.62c0,0.21,0,0.31,0,0.41c0,0.1,0,0.1-0.1,0.21c-0.1,0.1-0.21,0.31-0.41,0.41
		c-0.21,0.1-0.41,0.31-0.51,0.31c-0.1,0.1-0.31,0.21-0.51,0.41c-0.1,0-0.21,0.1-0.31,0.1c-0.1,0.1-0.21,0.1-0.31,0.21
		c-0.1,0-0.1,0.1-0.1,0.1s0,0,0.1,0l0.1,0.1c0.1,0,0.1,0,0.21,0.1c0.21,0.1,0.41,0.21,0.62,0.41c0.31,0.21,0.41,0.41,0.51,0.51
		c0.1,0.21,0.1,0.51,0.1,0.83c-0.1,0.21-0.21,0.51-0.31,0.72c-0.21,0.21-0.41,0.41-0.72,0.62c-0.31,0.1-0.51,0.31-0.92,0.31
		C83.42,333.68,83.12,333.68,82.81,333.79z"/>
	<polygon class="st11" points="116.22,356.09 116.22,350.54 116.83,350.54 119.35,354.68 119.05,354.68 121.47,350.54 
		122.07,350.54 122.07,356.09 121.37,356.09 121.37,351.76 121.57,351.76 119.35,355.38 118.95,355.38 116.83,351.76 117.03,351.76 
		117.03,356.09 	"/>
	<path class="st11" d="M125.04,355.44c0.2,0,0.5-0.1,0.71-0.2c0.2-0.1,0.3-0.3,0.5-0.5c0.1-0.3,0.1-0.5,0.1-0.81
		c0-0.3,0-0.6-0.1-0.81c-0.2-0.2-0.3-0.4-0.5-0.5c-0.2-0.1-0.5-0.21-0.71-0.21c-0.3,0-0.5,0.11-0.81,0.21c-0.2,0.1-0.3,0.3-0.5,0.5
		c-0.1,0.2-0.2,0.5-0.2,0.81c0,0.3,0.1,0.5,0.2,0.81c0.2,0.2,0.3,0.4,0.5,0.5C124.44,355.33,124.74,355.44,125.04,355.44z
		 M125.04,356.04c-0.5,0-0.81-0.1-1.21-0.3c-0.3-0.1-0.5-0.4-0.71-0.71c-0.2-0.3-0.3-0.71-0.3-1.11c0-0.4,0.1-0.81,0.3-1.11
		c0.2-0.3,0.4-0.61,0.71-0.71c0.4-0.2,0.71-0.3,1.21-0.3c0.4,0,0.71,0.1,1.11,0.3c0.3,0.1,0.5,0.41,0.71,0.71
		c0.2,0.3,0.3,0.71,0.3,1.11c0,0.4-0.1,0.81-0.3,1.11c-0.2,0.3-0.4,0.6-0.71,0.71C125.74,355.94,125.44,356.04,125.04,356.04z"/>
	<path class="st11" d="M130.1,351.8c0.3,0,0.6,0,0.91,0.2c0.2,0.1,0.4,0.3,0.6,0.61c0.1,0.2,0.2,0.6,0.2,1.01v2.42h-0.81v-2.32
		c0-0.4-0.1-0.71-0.3-0.91c-0.2-0.2-0.4-0.3-0.81-0.3c-0.2,0-0.5,0-0.71,0.1c-0.2,0.1-0.3,0.3-0.4,0.5s-0.2,0.4-0.2,0.71v2.22h-0.81
		v-4.24h0.81v1.11l-0.1-0.3c0.1-0.21,0.3-0.41,0.6-0.61C129.4,351.9,129.7,351.8,130.1,351.8z"/>
	<polygon class="st11" points="154.62,356.09 154.62,351.25 152.7,351.25 152.7,350.54 157.24,350.54 157.24,351.25 155.43,351.25 
		155.43,356.09 	"/>
	<path class="st11" d="M159.3,356.04c-0.3,0-0.6,0-0.91-0.2c-0.3-0.1-0.5-0.3-0.6-0.6c-0.21-0.2-0.31-0.6-0.31-1.01v-2.42h0.81v2.32
		c0,0.4,0.1,0.71,0.3,0.91s0.5,0.3,0.81,0.3c0.3,0,0.5,0,0.71-0.1c0.2-0.1,0.3-0.3,0.4-0.5c0.2-0.2,0.2-0.4,0.2-0.71v-2.22h0.81
		v4.24h-0.81v-1.11l0.2,0.3c-0.2,0.2-0.4,0.4-0.71,0.6C160.01,355.94,159.7,356.04,159.3,356.04z"/>
	<path class="st11" d="M164.37,356.04c-0.4,0-0.81-0.1-1.11-0.3c-0.4-0.1-0.61-0.4-0.81-0.71c-0.2-0.3-0.3-0.71-0.3-1.11
		c0-0.4,0.1-0.81,0.3-1.11c0.2-0.3,0.41-0.61,0.71-0.71c0.3-0.2,0.71-0.3,1.11-0.3c0.4,0,0.71,0.1,1.11,0.2
		c0.3,0.2,0.5,0.51,0.71,0.81c0.2,0.3,0.2,0.71,0.2,1.11c0,0.1,0,0.1,0,0.1c0,0.1,0,0.1,0,0.1h-3.53v-0.5h3.13l-0.3,0.2
		c0-0.3,0-0.5-0.1-0.71c-0.1-0.2-0.3-0.4-0.5-0.5c-0.2-0.1-0.4-0.21-0.71-0.21c-0.3,0-0.5,0.11-0.71,0.21c-0.2,0.1-0.4,0.3-0.5,0.5
		s-0.2,0.4-0.2,0.71v0.1c0,0.3,0.1,0.6,0.2,0.81c0.2,0.2,0.3,0.4,0.6,0.5c0.2,0.1,0.5,0.2,0.81,0.2c0.2,0,0.4-0.1,0.6-0.2
		c0.2,0,0.4-0.2,0.6-0.3l0.4,0.4c-0.2,0.3-0.4,0.4-0.71,0.5C165.08,356.04,164.77,356.04,164.37,356.04z"/>
	<polygon class="st11" points="188.47,356.09 186.65,350.54 187.46,350.54 189.18,355.58 188.67,355.58 190.49,350.54 
		191.19,350.54 192.9,355.58 192.5,355.58 194.22,350.54 195.03,350.54 193.11,356.09 192.3,356.09 190.69,351.35 190.89,351.35 
		189.28,356.09 	"/>
	<path class="st11" d="M196.97,356.04c-0.5,0-0.91-0.1-1.21-0.3c-0.3-0.1-0.6-0.4-0.81-0.71c-0.2-0.3-0.3-0.71-0.3-1.11
		c0-0.4,0.1-0.81,0.3-1.11c0.2-0.3,0.4-0.61,0.71-0.71c0.4-0.2,0.71-0.3,1.11-0.3c0.4,0,0.81,0.1,1.11,0.2
		c0.3,0.2,0.5,0.51,0.71,0.81c0.2,0.3,0.3,0.71,0.3,1.11c0,0.1,0,0.1,0,0.1c0,0.1,0,0.1,0,0.1h-3.63v-0.5h3.23l-0.31,0.2
		c0-0.3-0.1-0.5-0.2-0.71s-0.3-0.4-0.5-0.5c-0.2-0.1-0.4-0.21-0.71-0.21c-0.2,0-0.5,0.11-0.71,0.21c-0.2,0.1-0.3,0.3-0.5,0.5
		c-0.1,0.2-0.1,0.4-0.1,0.71v0.1c0,0.3,0,0.6,0.2,0.81c0.1,0.2,0.3,0.4,0.5,0.5c0.2,0.1,0.5,0.2,0.81,0.2c0.2,0,0.5-0.1,0.71-0.2
		c0.2,0,0.3-0.2,0.5-0.3l0.41,0.4c-0.21,0.3-0.41,0.4-0.71,0.5C197.58,356.04,197.27,356.04,196.97,356.04z"/>
	<path class="st11" d="M202.63,356.1v-1.11v-1.01v-1.01v-2.73h0.71v5.85H202.63z M201.35,355.44c0.2,0,0.5-0.1,0.71-0.2
		c0.2-0.1,0.4-0.3,0.5-0.5c0.1-0.3,0.2-0.5,0.2-0.81c0-0.3-0.1-0.6-0.2-0.81c-0.1-0.2-0.3-0.4-0.5-0.5c-0.2-0.1-0.5-0.21-0.71-0.21
		c-0.3,0-0.5,0.11-0.71,0.21c-0.2,0.1-0.4,0.3-0.5,0.5c-0.2,0.2-0.2,0.5-0.2,0.81c0,0.3,0,0.5,0.2,0.81c0.1,0.2,0.3,0.4,0.5,0.5
		C200.84,355.33,201.04,355.44,201.35,355.44z M201.26,356.04c-0.4,0-0.71-0.1-1.11-0.2c-0.3-0.2-0.5-0.5-0.71-0.81
		c-0.2-0.3-0.3-0.71-0.3-1.11c0-0.4,0.1-0.81,0.3-1.11c0.2-0.3,0.4-0.61,0.71-0.81c0.4-0.1,0.71-0.2,1.11-0.2
		c0.4,0,0.71,0.1,1.01,0.2c0.3,0.2,0.5,0.4,0.6,0.71c0.2,0.3,0.3,0.71,0.3,1.21s-0.1,0.91-0.2,1.21c-0.2,0.3-0.4,0.5-0.71,0.71
		C201.97,355.94,201.66,356.04,201.26,356.04z"/>
	<polygon class="st11" points="225.7,356.09 225.7,351.25 223.79,351.25 223.79,350.54 228.32,350.54 228.32,351.25 226.41,351.25 
		226.41,356.09 	"/>
	<path class="st11" d="M230.98,351.86c0.3,0,0.6,0,0.91,0.2c0.2,0.1,0.4,0.3,0.6,0.61c0.1,0.2,0.2,0.6,0.2,1.01v2.42h-0.71v-2.32
		c0-0.4-0.1-0.71-0.3-0.91c-0.2-0.2-0.5-0.3-0.91-0.3c-0.2,0-0.5,0-0.71,0.1c-0.2,0.1-0.3,0.3-0.4,0.5c-0.1,0.2-0.2,0.4-0.2,0.71
		v2.22h-0.71v-5.85h0.71v2.73l-0.1-0.3c0.1-0.21,0.3-0.41,0.6-0.61C230.27,351.96,230.57,351.86,230.98,351.86z"/>
	<path class="st11" d="M235.42,356.04c-0.3,0-0.6,0-0.91-0.2c-0.3-0.1-0.5-0.3-0.6-0.6c-0.2-0.2-0.2-0.6-0.2-1.01v-2.42h0.71v2.32
		c0,0.4,0.1,0.71,0.3,0.91c0.2,0.2,0.5,0.3,0.81,0.3c0.3,0,0.5,0,0.71-0.1c0.2-0.1,0.4-0.3,0.5-0.5c0.1-0.2,0.1-0.4,0.1-0.71v-2.22
		h0.81v4.24h-0.71v-1.11l0.1,0.3c-0.2,0.2-0.4,0.4-0.6,0.6C236.13,355.94,235.83,356.04,235.42,356.04z"/>
	<path class="st11" d="M263.38,356.09h-0.81v-5.55h3.84v0.71h-3.03V356.09z M263.26,353.15h2.83v0.71h-2.83V353.15z"/>
	<path class="st11" d="M267.11,356.04v-4.24h0.71v1.11l-0.1-0.2c0.1-0.31,0.3-0.51,0.6-0.71c0.3-0.1,0.6-0.2,1.01-0.2v0.71h-0.1
		h-0.11c-0.4,0-0.71,0.1-0.91,0.4c-0.3,0.2-0.4,0.5-0.4,1.01v2.12H267.11z"/>
	<path class="st11" d="M270.47,351.25c-0.1,0-0.3,0-0.4-0.1c-0.1-0.1-0.1-0.2-0.1-0.4c0-0.1,0-0.2,0.1-0.3c0.1-0.1,0.2-0.2,0.4-0.2
		c0.1,0,0.3,0.1,0.4,0.2c0.1,0.1,0.1,0.2,0.1,0.3c0,0.2,0,0.3-0.1,0.4C270.77,351.25,270.57,351.25,270.47,351.25z M270.07,356.04
		v-4.24h0.81v4.24H270.07z"/>
	<path class="st11" d="M298.67,356.09c-0.4,0-0.81,0-1.21-0.2c-0.4-0.1-0.71-0.3-0.91-0.5l0.3-0.6c0.2,0.2,0.5,0.4,0.81,0.5
		c0.3,0.1,0.6,0.2,1.01,0.2c0.3,0,0.6-0.1,0.81-0.1c0.21-0.1,0.31-0.2,0.41-0.3c0.1-0.2,0.2-0.3,0.2-0.5c0-0.2-0.1-0.3-0.2-0.4
		c-0.2-0.1-0.3-0.2-0.51-0.3c-0.2-0.1-0.4-0.1-0.71-0.2c-0.2,0-0.4-0.1-0.71-0.2c-0.2,0-0.4-0.1-0.6-0.2c-0.2-0.2-0.4-0.3-0.5-0.5
		c-0.1-0.2-0.2-0.41-0.2-0.71c0-0.3,0.1-0.5,0.3-0.81c0.1-0.2,0.3-0.4,0.6-0.6c0.4-0.1,0.71-0.2,1.21-0.2c0.3,0,0.71,0.1,1.01,0.2
		c0.3,0,0.6,0.2,0.81,0.3l-0.3,0.6c-0.2-0.1-0.5-0.2-0.71-0.3c-0.31-0.1-0.51-0.1-0.81-0.1s-0.5,0-0.71,0.1
		c-0.2,0.1-0.4,0.2-0.5,0.3c-0.1,0.2-0.1,0.3-0.1,0.5c0,0.2,0.1,0.3,0.2,0.4c0.1,0.11,0.3,0.21,0.5,0.31c0.2,0.1,0.4,0.1,0.6,0.2
		c0.2,0,0.5,0.1,0.71,0.2c0.31,0,0.51,0.1,0.71,0.2c0.2,0.1,0.3,0.3,0.4,0.5c0.2,0.2,0.2,0.4,0.2,0.71s-0.1,0.5-0.2,0.71
		c-0.2,0.3-0.4,0.5-0.71,0.6C299.59,356.09,299.18,356.09,298.67,356.09z"/>
	<path class="st11" d="M302.79,355.97c-0.3,0-0.6,0-0.81-0.1c-0.3-0.1-0.5-0.3-0.6-0.5c-0.1-0.2-0.2-0.4-0.2-0.6
		c0-0.2,0.1-0.4,0.2-0.6c0.1-0.2,0.3-0.3,0.5-0.5c0.3-0.1,0.6-0.1,1.01-0.1h1.31v0.5h-1.31c-0.3,0-0.6,0.1-0.71,0.2
		c-0.2,0.1-0.2,0.3-0.2,0.5c0,0.2,0.1,0.3,0.2,0.5c0.2,0.1,0.4,0.1,0.71,0.1c0.3,0,0.5,0,0.71-0.1c0.2-0.2,0.4-0.4,0.5-0.6l0.1,0.5
		c-0.1,0.3-0.2,0.5-0.5,0.6C303.5,355.87,303.19,355.97,302.79,355.97z M304.08,356.04v-0.91v-0.2v-1.51c0-0.3-0.1-0.5-0.3-0.71
		c-0.2-0.2-0.5-0.31-0.81-0.31c-0.3,0-0.5,0.11-0.71,0.21c-0.3,0-0.5,0.1-0.6,0.3l-0.4-0.61c0.3-0.2,0.5-0.3,0.81-0.4
		c0.3-0.1,0.6-0.1,1.01-0.1c0.5,0,1.01,0.1,1.31,0.4c0.31,0.31,0.41,0.71,0.41,1.32v2.52H304.08z"/>
	<path class="st11" d="M305.3,352.54v-0.6h2.72v0.6H305.3z M307.38,356.07c-0.5,0-0.81-0.1-1.01-0.3c-0.2-0.2-0.4-0.6-0.4-1.01
		v-3.84h0.81v3.84c0,0.2,0.1,0.4,0.2,0.5c0.1,0.1,0.2,0.2,0.4,0.2c0.3,0,0.5-0.1,0.6-0.2l0.3,0.5c-0.1,0.1-0.3,0.2-0.4,0.2
		C307.68,356.07,307.48,356.07,307.38,356.07z"/>
	<path class="st11" d="M333.04,356.09c-0.4,0-0.81,0-1.21-0.2c-0.3-0.1-0.6-0.3-0.91-0.5l0.3-0.6c0.2,0.2,0.5,0.4,0.81,0.5
		c0.4,0.1,0.71,0.2,1.01,0.2c0.4,0,0.6-0.1,0.81-0.1c0.2-0.1,0.4-0.2,0.5-0.3c0-0.2,0.1-0.3,0.1-0.5c0-0.2-0.1-0.3-0.2-0.4
		c-0.1-0.1-0.3-0.2-0.5-0.3c-0.2-0.1-0.4-0.1-0.6-0.2c-0.2,0-0.5-0.1-0.71-0.2c-0.3,0-0.5-0.1-0.71-0.2c-0.2-0.2-0.3-0.3-0.4-0.5
		c-0.2-0.2-0.2-0.41-0.2-0.71c0-0.3,0-0.5,0.2-0.81c0.1-0.2,0.4-0.4,0.71-0.6c0.3-0.1,0.71-0.2,1.21-0.2c0.3,0,0.6,0.1,0.91,0.2
		c0.3,0,0.6,0.2,0.81,0.3l-0.2,0.6c-0.3-0.1-0.5-0.2-0.81-0.3c-0.2-0.1-0.5-0.1-0.71-0.1c-0.3,0-0.6,0-0.81,0.1
		c-0.2,0.1-0.3,0.2-0.4,0.3c-0.1,0.2-0.2,0.3-0.2,0.5c0,0.2,0.1,0.3,0.2,0.4c0.1,0.11,0.3,0.21,0.5,0.31c0.2,0.1,0.4,0.1,0.6,0.2
		c0.3,0,0.5,0.1,0.81,0.2c0.2,0,0.4,0.1,0.6,0.2c0.2,0.1,0.4,0.3,0.51,0.5c0.1,0.2,0.2,0.4,0.2,0.71s-0.1,0.5-0.31,0.71
		c-0.1,0.3-0.3,0.5-0.71,0.6C333.95,356.09,333.55,356.09,333.04,356.09z"/>
	<path class="st11" d="M337.61,356.04c-0.3,0-0.6,0-0.91-0.2c-0.3-0.1-0.5-0.3-0.6-0.6c-0.2-0.2-0.2-0.6-0.2-1.01v-2.42h0.71v2.32
		c0,0.4,0.1,0.71,0.3,0.91c0.2,0.2,0.5,0.3,0.81,0.3s0.5,0,0.71-0.1c0.2-0.1,0.4-0.3,0.5-0.5s0.1-0.4,0.1-0.71v-2.22h0.81v4.24
		h-0.71v-1.11l0.1,0.3c-0.2,0.2-0.4,0.4-0.6,0.6C338.31,355.94,338.01,356.04,337.61,356.04z"/>
	<path class="st11" d="M343.06,351.8c0.4,0,0.71,0,0.91,0.2c0.3,0.1,0.5,0.3,0.6,0.61c0.2,0.2,0.2,0.6,0.2,1.01v2.42h-0.71v-2.32
		c0-0.4-0.1-0.71-0.3-0.91c-0.2-0.2-0.5-0.3-0.81-0.3s-0.5,0-0.71,0.1c-0.2,0.1-0.4,0.3-0.5,0.5c-0.1,0.2-0.1,0.4-0.1,0.71v2.22
		h-0.81v-4.24h0.71v1.11l-0.1-0.3c0.1-0.21,0.3-0.41,0.6-0.61C342.36,351.9,342.66,351.8,343.06,351.8z"/>
	<line class="st12" x1="34.99" y1="378.11" x2="95.31" y2="378.11"/>
</g>
<g>
	<defs>
		<rect id="SVGID_21_" x="-25.39" y="-5.67" width="475.44" height="615.76"/>
	</defs>
	<clipPath id="SVGID_22_">
		<use xlink:href="#SVGID_21_"  style="overflow:visible;"/>
	</clipPath>
	<line class="st13" x1="34.99" y1="398.37" x2="95.31" y2="398.37"/>
</g>
<g>
	<defs>
		<rect id="SVGID_23_" x="-25.39" y="-5.67" width="475.44" height="615.76"/>
	</defs>
	<clipPath id="SVGID_24_">
		<use xlink:href="#SVGID_23_"  style="overflow:visible;"/>
	</clipPath>
	<line class="st14" x1="34.99" y1="418.17" x2="95.31" y2="418.17"/>
</g>
<g>
	<defs>
		<rect id="SVGID_25_" x="-25.39" y="-5.67" width="475.44" height="615.76"/>
	</defs>
	<clipPath id="SVGID_26_">
		<use xlink:href="#SVGID_25_"  style="overflow:visible;"/>
	</clipPath>
	<line class="st15" x1="34.99" y1="437.87" x2="95.31" y2="437.87"/>
</g>
<g>
	<defs>
		<rect id="SVGID_27_" x="-25.39" y="-5.67" width="475.44" height="615.76"/>
	</defs>
	<clipPath id="SVGID_28_">
		<use xlink:href="#SVGID_27_"  style="overflow:visible;"/>
	</clipPath>
	<path class="st16" d="M62.63,464.88c-0.21,0-0.31,0-0.31,0c-0.1-0.1-0.21-0.21-0.21-0.21c-0.1-0.1-0.1-0.21-0.21-0.31
		c-0.1-0.1-0.1-0.21-0.1-0.31c0-0.31-0.11-0.51-0.11-0.82c0-0.21,0-0.62,0.11-1.03c0-0.41,0-0.72,0.1-1.13
		c0.1-0.31,0.21-0.62,0.21-0.82c0.1-0.31,0.21-0.51,0.21-0.62c0.1-0.21,0.1-0.21,0-0.21c0,0,0,0-0.1,0.1
		c-0.1,0.1-0.1,0.21-0.21,0.41c-0.1,0.1-0.1,0.31-0.21,0.41c-0.11,0.21-0.21,0.31-0.21,0.41c-0.1,0.31-0.31,0.62-0.41,0.92
		c-0.21,0.21-0.31,0.51-0.51,0.82c-0.1,0.31-0.31,0.51-0.41,0.72c-0.1,0.1-0.21,0.21-0.31,0.31c-0.1,0.21-0.21,0.41-0.31,0.51
		c-0.1,0.21-0.21,0.31-0.41,0.41c-0.1,0.21-0.31,0.31-0.51,0.31c-0.21,0.1-0.31,0-0.51-0.1c0,0-0.1,0-0.1-0.1
		c-0.1-0.1-0.1-0.1-0.21-0.21c0-0.1,0-0.21,0-0.31c0-0.1,0-0.31,0-0.51c0.1-0.31,0.1-0.62,0.1-0.92s0.1-0.51,0.1-0.82
		c0.1-0.31,0.1-0.51,0.1-0.72c0.1-0.51,0.21-1.13,0.31-1.64c0.21-0.62,0.31-1.23,0.41-1.74c0.1-0.21,0.1-0.41,0.21-0.62
		c0-0.21,0.1-0.41,0.1-0.62c0.1-0.21,0.1-0.31,0.21-0.41c0.1,0,0.21,0,0.31,0c0.1,0,0.21,0.1,0.31,0.1c0,0.1,0.1,0.31,0.21,0.41
		c0,0.21,0,0.41-0.1,0.72c-0.21,0.41-0.31,0.92-0.51,1.54c-0.21,0.62-0.31,1.33-0.41,2.16c-0.1,0.21-0.1,0.51-0.1,0.72
		c-0.1,0.31-0.1,0.62-0.1,0.82c-0.1,0.31-0.1,0.51-0.1,0.62c0,0.21,0,0.31,0,0.31c0.1,0,0.1,0,0.21-0.21
		c0.21-0.1,0.31-0.21,0.31-0.41c0.41-0.62,0.72-1.23,1.13-1.85c0.31-0.62,0.62-1.23,0.92-1.85c0.21-0.21,0.31-0.51,0.42-0.82
		c0.21-0.31,0.31-0.51,0.51-0.82c0.1-0.21,0.21-0.52,0.41-0.72c0.1-0.21,0.21-0.41,0.31-0.51c0.1-0.21,0.1-0.21,0.21-0.31
		c0.1,0,0.31,0.1,0.41,0.21c0.1,0,0.21,0.21,0.21,0.31s0.1,0.1,0,0.21c0,0.1,0,0.21,0,0.31c0,0.1-0.1,0.21-0.1,0.42
		c-0.1,0.1-0.21,0.31-0.21,0.62c-0.1,0.21-0.21,0.41-0.21,0.62c-0.1,0.31-0.1,0.41-0.21,0.62c0,0.31-0.1,0.72-0.21,1.23
		c-0.1,0.41-0.21,0.82-0.31,1.33c0,0.41-0.1,0.72-0.1,1.13c0,0.21,0,0.41,0,0.51c0,0.1,0.1,0.21,0.1,0.31l0.1,0.1
		c0.1,0,0.21-0.1,0.21-0.1c0.21-0.21,0.31-0.41,0.41-0.62c0.1-0.1,0.21-0.31,0.31-0.41c0.1-0.21,0.21-0.41,0.31-0.62
		c0.21-0.41,0.41-0.82,0.72-1.33c0.21-0.51,0.41-0.92,0.62-1.44c0.21-0.51,0.41-0.92,0.51-1.23c0.21-0.51,0.31-0.93,0.41-1.14
		c0.1-0.31,0.21-0.51,0.31-0.62c0.1-0.21,0.21-0.31,0.31-0.31c0,0,0.1-0.1,0.21-0.1c0.1,0,0.1,0.1,0.21,0.1c0,0.1,0.1,0.1,0.1,0.21
		c0.1,0.1,0.1,0.1,0.1,0.21c0,0.21-0.1,0.41-0.21,0.72c-0.11,0.31-0.31,0.62-0.42,1.03c-0.1,0.31-0.31,0.72-0.41,1.03
		c-0.1,0.31-0.21,0.62-0.31,0.82c-0.1,0.1-0.21,0.31-0.31,0.41c-0.1,0.1-0.1,0.21-0.1,0.31c0,0-0.1,0.1-0.21,0.31
		c0,0.21-0.1,0.41-0.31,0.62c-0.1,0.31-0.21,0.51-0.41,0.82c-0.1,0.21-0.31,0.51-0.41,0.72c-0.21,0.21-0.31,0.41-0.41,0.51
		c-0.21,0.21-0.41,0.51-0.62,0.62c-0.21,0.21-0.41,0.31-0.51,0.41C62.74,464.88,62.63,464.88,62.63,464.88z"/>
	<path class="st16" d="M68.56,460.87c0.1,0,0.21,0,0.31-0.1s0.21-0.21,0.31-0.31c0-0.1,0.1-0.21,0.1-0.21c0-0.21-0.1-0.21-0.21-0.31
		c-0.1-0.1-0.31-0.1-0.51-0.1c-0.1,0.1-0.21,0.1-0.31,0.21c-0.1,0.1-0.21,0.21-0.31,0.31c-0.1,0.1-0.21,0.21-0.21,0.31
		c-0.1,0.1-0.1,0.21-0.1,0.21s0.1,0.1,0.21,0.1s0.21,0,0.41,0C68.35,460.97,68.45,460.97,68.56,460.87z M68.66,463.74
		c-0.21,0.1-0.51,0.21-0.72,0.21c-0.21,0-0.51,0-0.72-0.1c-0.21-0.1-0.41-0.21-0.62-0.41c-0.1-0.21-0.21-0.41-0.21-0.62
		c-0.1-0.31-0.1-0.62,0-1.03c0-0.31,0.1-0.72,0.31-1.03c0.21-0.41,0.42-0.72,0.72-1.03c0.21-0.21,0.51-0.41,0.82-0.51
		c0.1-0.1,0.21-0.1,0.31-0.1c0.1,0,0.31,0,0.41,0c0.21,0,0.41,0,0.51,0.1s0.21,0.1,0.31,0.21c0.1,0.1,0.21,0.31,0.21,0.41
		c0.1,0.1,0.1,0.21,0.1,0.41c-0.1,0.21-0.21,0.41-0.41,0.72c-0.21,0.31-0.51,0.51-0.82,0.62c-0.21,0.1-0.41,0.1-0.62,0.1
		c-0.21,0-0.41,0-0.62-0.1c-0.21-0.1-0.31,0-0.41,0c0,0.1,0,0.31-0.1,0.62c0,0.31,0,0.51,0.1,0.62c0.1,0.21,0.21,0.21,0.31,0.31
		c0.21,0,0.41,0,0.41,0c0.1,0,0.31,0,0.41-0.1c0.1-0.1,0.21-0.1,0.21-0.1c0.1-0.1,0.1-0.1,0.1-0.1c0.1,0,0.1-0.1,0.21-0.21
		c0,0,0.1,0,0.1-0.1c0.1,0,0.1,0,0.1,0c0.1,0,0.21,0,0.21,0.1c0.1,0,0.1,0.1,0.1,0.1c0.1,0,0.1,0.1,0,0.21c0,0.1-0.1,0.21-0.31,0.41
		C68.97,463.44,68.76,463.54,68.66,463.74z"/>
	<path class="st16" d="M71.99,461.28c0.1,0,0.31-0.1,0.31-0.1c0.1-0.1,0.21-0.21,0.31-0.21c0.21-0.21,0.31-0.51,0.31-0.72
		c0.1-0.21,0-0.31,0-0.41c-0.1-0.1-0.1-0.1-0.21-0.1c0,0,0,0-0.1,0c-0.1,0-0.21,0.1-0.31,0.21c-0.21,0.1-0.31,0.21-0.42,0.31
		c-0.1,0.1-0.21,0.31-0.31,0.41l-0.21,0.21c0.1,0,0.1,0,0.21,0c0,0,0,0,0.1,0c0,0.1,0,0.1,0,0.21c0.1,0,0.1,0.1,0.1,0.1
		C71.88,461.28,71.88,461.28,71.99,461.28z M71.37,464.15c-0.41,0-0.72-0.1-0.92-0.41c-0.31-0.31-0.41-0.62-0.41-1.13
		c0-0.31,0.1-0.62,0.21-1.03c0.1-0.31,0.31-0.72,0.41-1.03c0.21-0.31,0.41-0.62,0.62-0.92c0.21-0.21,0.51-0.41,0.72-0.51
		c0.1,0,0.21,0,0.21-0.1c0.1,0,0.21,0,0.31,0c0.1,0,0.21,0,0.31,0c0.21,0.1,0.21,0.1,0.31,0.1c0.21,0.1,0.31,0.21,0.41,0.31
		c0.1,0.1,0.21,0.31,0.21,0.51c0,0.1,0,0.21,0,0.31s0,0.21,0,0.31c-0.1,0.31-0.31,0.51-0.51,0.82c-0.1,0.21-0.41,0.41-0.62,0.51
		c-0.1,0.1-0.21,0.1-0.21,0.1c-0.1,0-0.21,0-0.31,0c-0.1,0-0.31,0-0.52-0.1c-0.1,0-0.21-0.1-0.31-0.21l-0.1-0.1l-0.1,0.1
		c0,0.21-0.1,0.41-0.1,0.51c-0.1,0.21-0.1,0.31-0.1,0.51c0,0.1,0,0.21,0,0.31s0.1,0.1,0.1,0.21c0,0.1,0.1,0.1,0.21,0.1
		c0,0,0.1,0.1,0.21,0.1c0.1,0,0.1,0,0.21-0.1h0.1c0.21,0,0.31-0.1,0.42-0.21c0.1,0,0.21-0.1,0.31-0.1v-0.1c0.1,0,0.21-0.1,0.31-0.1
		c0.1-0.1,0.1-0.1,0.1-0.1s0.1,0,0.1-0.1c0.1,0,0.21,0,0.31,0.1c0.1,0.1,0.21,0.1,0.21,0.21s-0.1,0.21-0.21,0.31
		c0,0-0.1,0.1-0.21,0.21c-0.1,0.1-0.21,0.21-0.21,0.21h-0.1l-0.1,0.1c-0.1,0.1-0.1,0.1-0.21,0.1h-0.1c0,0.1-0.1,0.1-0.31,0.21
		C71.78,464.15,71.58,464.15,71.37,464.15z"/>
	<path class="st16" d="M74.15,464.21c0,0-0.1-0.1-0.21-0.21c-0.1-0.1-0.21-0.21-0.21-0.31c-0.1-0.1-0.1-0.21-0.1-0.31
		c0-0.1,0.1-0.31,0.1-0.51c0.1-0.21,0.21-0.51,0.31-0.82c0.1-0.1,0.1-0.21,0.21-0.31c0-0.1,0-0.21,0.1-0.31
		c0-0.21,0.1-0.41,0.21-0.62c0.1-0.21,0.21-0.41,0.31-0.62c0-0.21,0.1-0.41,0.21-0.51c0.1-0.31,0.21-0.51,0.31-0.72
		c0.1-0.21,0.1-0.31,0.21-0.51c0.1-0.21,0.21-0.41,0.31-0.72c0.1-0.21,0.21-0.52,0.31-0.72c0.1-0.21,0.21-0.51,0.31-0.72
		c0-0.21,0.1-0.31,0.1-0.41v-0.1c0.1-0.1,0.1-0.1,0.1-0.1c0.1,0,0.1,0,0.21,0h0.1c0.11,0,0.11,0,0.21,0.21
		c0.1,0.1,0.21,0.21,0.21,0.31c0,0.1-0.1,0.41-0.21,0.82c-0.1,0.31-0.31,0.72-0.62,1.24c-0.21,0.62-0.51,1.13-0.62,1.54
		c-0.21,0.41-0.31,0.72-0.41,0.92c0,0.1-0.1,0.21,0,0.31c0,0,0,0,0.1-0.1c0.1,0,0.21-0.1,0.41-0.21c0-0.1,0.1-0.1,0.31-0.21
		c0.1-0.1,0.21-0.21,0.31-0.21c0.1-0.1,0.21-0.21,0.21-0.21c0.1,0,0.21-0.1,0.31-0.1c0.1-0.1,0.21-0.1,0.21-0.21
		c0.21-0.1,0.31-0.1,0.41-0.1c0,0.1,0.1,0.1,0.21,0.21s0.1,0.21,0.1,0.31c-0.1,0.1-0.21,0.31-0.51,0.41
		c-0.1,0.1-0.31,0.31-0.62,0.41c-0.21,0.1-0.41,0.31-0.62,0.41c-0.21,0.1-0.31,0.1-0.31,0.21c0,0,0,0,0.1,0.21
		c0,0.1,0.1,0.21,0.21,0.31c0,0.1,0.1,0.31,0.21,0.41c0.1,0.21,0.1,0.31,0.21,0.31c0,0.21,0.21,0.41,0.31,0.51
		c0.21,0.1,0.41,0.1,0.62,0c0.1-0.1,0.21-0.1,0.31-0.1c0.1,0.1,0.21,0.1,0.21,0.21c0,0.1,0,0.1,0,0.21c0,0,0,0.1-0.1,0.21
		c-0.21,0.21-0.41,0.31-0.62,0.31c-0.21,0.1-0.31,0.1-0.52,0c-0.1,0-0.31-0.1-0.51-0.31c-0.1-0.21-0.41-0.51-0.72-0.82
		c0-0.1,0-0.1,0-0.21c-0.1-0.1-0.1-0.1-0.1-0.21s-0.1-0.1-0.1-0.21c-0.1-0.1-0.1-0.1-0.1-0.1c0-0.1,0-0.1-0.1-0.21c0,0,0,0-0.1-0.1
		c-0.1,0-0.1,0-0.21,0.1c-0.1,0.1-0.1,0.21-0.21,0.31c0,0.1-0.1,0.21-0.1,0.41c-0.1,0.21-0.1,0.31-0.21,0.51c0,0.21,0,0.31,0,0.41
		c0,0.1,0,0.21-0.1,0.31C74.46,464.21,74.36,464.21,74.15,464.21z"/>
	<path class="st16" d="M83.8,464.14c0,0-0.1-0.1-0.1-0.21s0-0.31,0-0.62c0-0.21,0.1-0.51,0.21-0.72c0-0.31,0.1-0.51,0.1-0.72
		c0.1-0.21,0.1-0.31,0.21-0.41c0-0.1,0-0.21,0-0.21s0,0-0.1,0c-0.1,0-0.21,0-0.41,0.1c-0.41,0.1-0.72,0.1-0.92,0.1
		c-0.31,0-0.41-0.21-0.62-0.41c0,0-0.1-0.1-0.1-0.21c-0.1-0.1-0.1-0.31-0.1-0.41c0-0.1,0-0.21,0.1-0.31c0-0.1,0.1-0.21,0.1-0.31
		c0.1-0.1,0.1-0.21,0.21-0.31c0-0.1,0-0.1,0-0.1c0-0.1,0-0.1,0-0.1c0.1,0,0.1-0.1,0.1-0.1c0-0.1,0.1-0.21,0.31-0.51
		c0.1-0.21,0.21-0.41,0.41-0.62c0.21-0.21,0.31-0.41,0.41-0.62c0.21-0.21,0.31-0.31,0.41-0.42c0,0,0.1-0.1,0.21-0.1
		c0.1,0,0.1,0,0.21,0c0,0,0.1,0.1,0.1,0.21c0,0.11,0.1,0.11,0.1,0.21c0,0.1,0,0.1,0,0.1c0,0.1-0.1,0.1-0.1,0.1c0,0.1,0,0.1-0.1,0.21
		c-0.1,0.1-0.21,0.21-0.31,0.41c-0.1,0.1-0.21,0.31-0.31,0.41c-0.1,0.21-0.21,0.41-0.41,0.62c-0.1,0.1-0.21,0.31-0.31,0.51
		c-0.1,0.1-0.1,0.31-0.21,0.41c0,0.21-0.1,0.31-0.1,0.41c0,0,0,0.1,0.1,0.1c0.1,0,0.21,0,0.31,0c0.21,0,0.31-0.1,0.62-0.1
		c0.1-0.1,0.21-0.1,0.31-0.1c0.1,0,0.21-0.1,0.31-0.1s0.1,0,0.21,0c0-0.1,0.1-0.1,0.1-0.1c0-0.1,0-0.21,0.1-0.31
		c0.1-0.1,0.1-0.21,0.21-0.41c0-0.1,0.1-0.31,0.21-0.51c0.1-0.1,0.21-0.31,0.31-0.51c0.21-0.41,0.31-0.72,0.41-0.82
		c0.1-0.21,0.1-0.31,0.21-0.31c0,0,0,0,0.1,0.1c0.1,0,0.1,0.1,0.21,0.21c0.1,0,0.1,0.1,0.1,0.1c0,0.1,0,0.1,0,0.21
		c0,0.1,0,0.21-0.1,0.31c0,0.1-0.1,0.21-0.1,0.31c-0.1,0.1-0.21,0.31-0.31,0.51c-0.1,0.21-0.21,0.41-0.31,0.72
		c-0.1,0.21-0.31,0.51-0.41,0.82c-0.1,0.21-0.21,0.51-0.31,0.72c-0.1,0.31-0.21,0.51-0.21,0.62c-0.21,0.41-0.31,0.72-0.31,0.92
		c-0.1,0.21-0.1,0.41-0.1,0.51c0,0.1,0,0.21,0,0.31c0,0.1,0,0.21-0.1,0.31c-0.1,0.1-0.1,0.21-0.21,0.21
		C84.01,464.25,83.9,464.25,83.8,464.14z"/>
	<polygon class="st16" points="116.22,486.35 116.22,480.8 116.83,480.8 119.35,484.94 119.05,484.94 121.47,480.8 122.07,480.8 
		122.07,486.35 121.37,486.35 121.37,482.02 121.57,482.02 119.35,485.64 118.95,485.64 116.83,482.02 117.03,482.02 117.03,486.35 
			"/>
	<path class="st16" d="M125.04,485.7c0.2,0,0.5-0.11,0.71-0.21c0.2-0.1,0.3-0.3,0.5-0.5c0.1-0.2,0.1-0.5,0.1-0.81
		c0-0.3,0-0.5-0.1-0.81c-0.2-0.2-0.3-0.3-0.5-0.5c-0.2-0.1-0.5-0.1-0.71-0.1c-0.3,0-0.5,0-0.81,0.1c-0.2,0.2-0.3,0.3-0.5,0.5
		c-0.1,0.3-0.2,0.5-0.2,0.81c0,0.3,0.1,0.6,0.2,0.81c0.2,0.2,0.3,0.4,0.5,0.5C124.43,485.59,124.74,485.7,125.04,485.7z
		 M125.04,486.3c-0.5,0-0.81,0-1.21-0.2c-0.3-0.2-0.5-0.51-0.71-0.81c-0.2-0.3-0.3-0.71-0.3-1.11c0-0.4,0.1-0.81,0.3-1.11
		c0.2-0.3,0.4-0.5,0.71-0.71c0.4-0.2,0.71-0.3,1.21-0.3c0.4,0,0.71,0.1,1.11,0.3c0.3,0.2,0.5,0.4,0.71,0.71
		c0.2,0.3,0.3,0.71,0.3,1.11c0,0.4-0.1,0.81-0.3,1.11c-0.2,0.3-0.4,0.61-0.71,0.81C125.74,486.3,125.44,486.3,125.04,486.3z"/>
	<path class="st16" d="M130.1,482.06c0.3,0,0.6,0.1,0.91,0.2c0.2,0.1,0.4,0.3,0.6,0.6c0.1,0.3,0.2,0.6,0.2,1.01v2.42h-0.81v-2.32
		c0-0.4-0.1-0.71-0.3-0.91s-0.4-0.3-0.81-0.3c-0.2,0-0.5,0-0.71,0.1c-0.2,0.1-0.3,0.3-0.4,0.5c-0.1,0.2-0.2,0.5-0.2,0.81v2.12h-0.81
		v-4.24h0.81v1.21l-0.1-0.3c0.1-0.3,0.3-0.5,0.6-0.71C129.4,482.16,129.7,482.06,130.1,482.06z"/>
	<polygon class="st16" points="154.62,486.35 154.62,481.51 152.7,481.51 152.7,480.8 157.24,480.8 157.24,481.51 155.43,481.51 
		155.43,486.35 	"/>
	<path class="st16" d="M159.3,486.3c-0.3,0-0.6,0-0.91-0.1c-0.3-0.2-0.5-0.4-0.6-0.71c-0.21-0.2-0.31-0.6-0.31-1.01v-2.42h0.81v2.32
		c0,0.5,0.1,0.81,0.3,1.01c0.2,0.2,0.5,0.31,0.81,0.31c0.3,0,0.5-0.11,0.71-0.21s0.3-0.3,0.4-0.5c0.2-0.2,0.2-0.4,0.2-0.71v-2.22
		h0.81v4.24h-0.81v-1.11l0.2,0.3c-0.2,0.31-0.4,0.51-0.71,0.61C160.01,486.3,159.7,486.3,159.3,486.3z"/>
	<path class="st16" d="M164.37,486.3c-0.4,0-0.81,0-1.11-0.2c-0.4-0.2-0.61-0.51-0.81-0.81c-0.2-0.3-0.3-0.71-0.3-1.11
		c0-0.4,0.1-0.81,0.3-1.11c0.2-0.3,0.41-0.5,0.71-0.71c0.3-0.2,0.71-0.3,1.11-0.3c0.4,0,0.71,0.1,1.11,0.3
		c0.3,0.1,0.5,0.4,0.71,0.71c0.2,0.3,0.2,0.71,0.2,1.11c0,0.1,0,0.1,0,0.2c0,0,0,0,0,0.1h-3.53v-0.6h3.13l-0.3,0.2
		c0-0.2,0-0.5-0.1-0.71c-0.1-0.2-0.3-0.4-0.5-0.5c-0.2-0.1-0.4-0.2-0.71-0.2c-0.3,0-0.5,0.1-0.71,0.2c-0.2,0.1-0.4,0.3-0.5,0.5
		s-0.2,0.5-0.2,0.71v0.2c0,0.2,0.1,0.5,0.2,0.71c0.2,0.2,0.3,0.4,0.6,0.5c0.2,0.1,0.5,0.21,0.81,0.21c0.2,0,0.4-0.11,0.6-0.11
		c0.2-0.1,0.4-0.2,0.6-0.4l0.4,0.51c-0.2,0.2-0.4,0.4-0.71,0.5C165.08,486.3,164.77,486.3,164.37,486.3z"/>
	<polygon class="st16" points="188.47,486.35 186.65,480.8 187.46,480.8 189.18,485.95 188.67,485.95 190.49,480.8 191.19,480.8 
		192.9,485.95 192.5,485.95 194.22,480.8 195.03,480.8 193.11,486.35 192.3,486.35 190.69,481.61 190.89,481.61 189.28,486.35 	"/>
	<path class="st16" d="M196.97,486.3c-0.5,0-0.91,0-1.21-0.2c-0.3-0.2-0.6-0.51-0.81-0.81c-0.2-0.3-0.3-0.71-0.3-1.11
		c0-0.4,0.1-0.81,0.3-1.11c0.2-0.3,0.4-0.5,0.71-0.71c0.4-0.2,0.71-0.3,1.11-0.3c0.4,0,0.81,0.1,1.11,0.3c0.3,0.1,0.5,0.4,0.71,0.71
		c0.2,0.3,0.3,0.71,0.3,1.11c0,0.1,0,0.1,0,0.2c0,0,0,0,0,0.1h-3.63v-0.6h3.23l-0.31,0.2c0-0.2-0.1-0.5-0.2-0.71s-0.3-0.4-0.5-0.5
		c-0.2-0.1-0.4-0.2-0.71-0.2c-0.2,0-0.5,0.1-0.71,0.2c-0.2,0.1-0.3,0.3-0.5,0.5c-0.1,0.2-0.1,0.5-0.1,0.71v0.2c0,0.2,0,0.5,0.2,0.71
		c0.1,0.2,0.3,0.4,0.5,0.5c0.2,0.1,0.5,0.21,0.81,0.21c0.2,0,0.5-0.11,0.71-0.11c0.2-0.1,0.3-0.2,0.5-0.4l0.41,0.51
		c-0.21,0.2-0.41,0.4-0.71,0.5C197.58,486.3,197.27,486.3,196.97,486.3z"/>
	<path class="st16" d="M202.76,486.36v-1.11v-1.01v-0.91v-2.82h0.71v5.85H202.76z M201.35,485.76c0.2,0,0.5-0.11,0.71-0.21
		c0.2-0.1,0.4-0.3,0.5-0.5c0.1-0.2,0.2-0.5,0.2-0.81c0-0.3-0.1-0.5-0.2-0.81c-0.1-0.2-0.3-0.3-0.5-0.5c-0.2-0.1-0.5-0.1-0.71-0.1
		c-0.3,0-0.5,0-0.71,0.1c-0.2,0.2-0.4,0.3-0.5,0.5c-0.2,0.3-0.2,0.5-0.2,0.81c0,0.3,0,0.6,0.2,0.81c0.1,0.2,0.3,0.4,0.5,0.5
		C200.85,485.65,201.05,485.76,201.35,485.76z M201.25,486.36c-0.4,0-0.71,0-1.11-0.2c-0.3-0.2-0.5-0.4-0.71-0.81
		c-0.2-0.3-0.3-0.71-0.3-1.11c0-0.4,0.1-0.81,0.3-1.11c0.2-0.3,0.4-0.5,0.71-0.71c0.4-0.2,0.71-0.3,1.11-0.3
		c0.4,0,0.71,0.1,1.01,0.2c0.3,0.2,0.5,0.4,0.6,0.71c0.2,0.4,0.3,0.81,0.3,1.21c0,0.5-0.1,0.91-0.2,1.21
		c-0.2,0.31-0.4,0.51-0.71,0.71C201.95,486.36,201.65,486.36,201.25,486.36z"/>
	<polygon class="st16" points="225.7,486.35 225.7,481.51 223.79,481.51 223.79,480.8 228.32,480.8 228.32,481.51 226.41,481.51 
		226.41,486.35 	"/>
	<path class="st16" d="M230.98,482.12c0.3,0,0.6,0.1,0.91,0.2c0.2,0.1,0.4,0.3,0.6,0.6c0.1,0.3,0.2,0.6,0.2,1.01v2.42h-0.71v-2.32
		c0-0.4-0.1-0.71-0.3-0.91c-0.2-0.2-0.5-0.3-0.91-0.3c-0.2,0-0.5,0-0.71,0.1c-0.2,0.1-0.3,0.3-0.4,0.5c-0.1,0.2-0.2,0.5-0.2,0.81
		v2.12h-0.71v-5.85h0.71v2.82l-0.1-0.3c0.1-0.3,0.3-0.5,0.6-0.71C230.27,482.22,230.57,482.12,230.98,482.12z"/>
	<path class="st16" d="M235.42,486.3c-0.3,0-0.6,0-0.91-0.1c-0.3-0.2-0.5-0.4-0.6-0.71c-0.2-0.2-0.2-0.6-0.2-1.01v-2.42h0.71v2.32
		c0,0.5,0.1,0.81,0.3,1.01c0.2,0.2,0.5,0.31,0.81,0.31c0.3,0,0.5-0.11,0.71-0.21c0.2-0.1,0.4-0.3,0.5-0.5c0.1-0.2,0.1-0.4,0.1-0.71
		v-2.22h0.81v4.24h-0.71v-1.11l0.1,0.3c-0.2,0.31-0.4,0.51-0.6,0.61C236.13,486.3,235.83,486.3,235.42,486.3z"/>
	<path class="st16" d="M263.38,486.34h-0.81v-5.55h3.84v0.71h-3.03V486.34z M263.28,483.42h2.83v0.71h-2.83V483.42z"/>
	<path class="st16" d="M267.11,486.3v-4.23h0.71v1.21l-0.1-0.3c0.1-0.3,0.3-0.5,0.6-0.71c0.3-0.1,0.6-0.2,1.01-0.2v0.71h-0.1h-0.11
		c-0.4,0-0.71,0.1-0.91,0.4c-0.3,0.2-0.4,0.6-0.4,1.01v2.12H267.11z"/>
	<path class="st16" d="M270.47,481.32c-0.1,0-0.3,0-0.4-0.1c-0.1-0.1-0.1-0.2-0.1-0.3c0-0.2,0-0.3,0.1-0.4c0.1-0.1,0.2-0.1,0.4-0.1
		c0.1,0,0.3,0,0.4,0.1c0.1,0.1,0.1,0.2,0.1,0.3c0,0.2,0,0.3-0.1,0.4C270.77,481.32,270.57,481.32,270.47,481.32z M270.07,486.36
		v-4.23h0.81v4.23H270.07z"/>
	<path class="st16" d="M298.67,486.45c-0.4,0-0.81-0.1-1.21-0.2c-0.4-0.2-0.71-0.3-0.91-0.5l0.3-0.61c0.2,0.1,0.5,0.3,0.81,0.4
		c0.3,0.1,0.6,0.21,1.01,0.21c0.3,0,0.6,0,0.81-0.11c0.21-0.1,0.31-0.2,0.41-0.3c0.1-0.1,0.2-0.3,0.2-0.5c0-0.1-0.1-0.3-0.2-0.4
		c-0.2-0.1-0.3-0.2-0.51-0.3c-0.2-0.1-0.4-0.1-0.71-0.2c-0.2,0-0.4-0.1-0.71-0.2c-0.2,0-0.4-0.1-0.6-0.2c-0.2-0.1-0.4-0.3-0.5-0.5
		c-0.1-0.1-0.2-0.4-0.2-0.71c0-0.3,0.1-0.5,0.3-0.81c0.1-0.2,0.3-0.4,0.6-0.5c0.4-0.2,0.71-0.2,1.21-0.2c0.3,0,0.71,0,1.01,0.1
		c0.3,0.1,0.6,0.2,0.81,0.3l-0.3,0.71c-0.2-0.2-0.5-0.3-0.71-0.4c-0.31,0-0.51-0.1-0.81-0.1s-0.5,0.1-0.71,0.1
		c-0.2,0.1-0.4,0.2-0.5,0.3c-0.1,0.2-0.1,0.3-0.1,0.5c0,0.2,0.1,0.3,0.2,0.4c0.1,0.2,0.3,0.3,0.5,0.3c0.2,0.1,0.4,0.2,0.6,0.2
		c0.2,0.1,0.5,0.1,0.71,0.2c0.31,0.1,0.51,0.1,0.71,0.3c0.2,0.1,0.3,0.2,0.4,0.4c0.2,0.2,0.2,0.4,0.2,0.71c0,0.3-0.1,0.5-0.2,0.81
		c-0.2,0.21-0.4,0.41-0.71,0.51C299.59,486.35,299.18,486.45,298.67,486.45z"/>
	<path class="st16" d="M302.77,486.3c-0.3,0-0.6,0-0.81-0.1c-0.3-0.1-0.5-0.3-0.6-0.4c-0.1-0.21-0.2-0.41-0.2-0.71
		c0-0.2,0.1-0.4,0.2-0.6c0.1-0.2,0.3-0.3,0.5-0.4c0.3-0.1,0.6-0.2,1.01-0.2h1.31v0.5h-1.31c-0.3,0-0.6,0.1-0.71,0.2
		c-0.2,0.2-0.2,0.3-0.2,0.5c0,0.2,0.1,0.4,0.2,0.5c0.2,0.11,0.4,0.21,0.71,0.21c0.3,0,0.5-0.1,0.71-0.21c0.2-0.1,0.4-0.3,0.5-0.6
		l0.1,0.5c-0.1,0.31-0.2,0.51-0.5,0.61C303.47,486.3,303.17,486.3,302.77,486.3z M304.08,486.3v-0.91v-0.1v-1.51
		c0-0.4-0.1-0.6-0.3-0.81c-0.2-0.2-0.5-0.2-0.81-0.2c-0.3,0-0.5,0-0.71,0.1c-0.3,0.1-0.5,0.2-0.6,0.3l-0.4-0.6
		c0.3-0.1,0.5-0.3,0.81-0.4c0.3,0,0.6-0.1,1.01-0.1c0.5,0,1.01,0.1,1.31,0.4c0.31,0.3,0.41,0.71,0.41,1.31v2.53H304.08z"/>
	<path class="st16" d="M305.29,482.8v-0.71h2.72v0.71H305.29z M307.41,486.33c-0.5,0-0.81-0.1-1.01-0.3c-0.2-0.2-0.4-0.51-0.4-1.01
		v-3.83h0.81v3.83c0,0.2,0.1,0.4,0.2,0.5c0.1,0.1,0.2,0.21,0.4,0.21c0.3,0,0.5-0.11,0.6-0.21l0.3,0.61c-0.1,0.1-0.3,0.1-0.4,0.2
		C307.71,486.33,307.51,486.33,307.41,486.33z"/>
	<path class="st16" d="M333.04,486.45c-0.4,0-0.81-0.1-1.21-0.2c-0.3-0.2-0.6-0.3-0.91-0.5l0.3-0.61c0.2,0.1,0.5,0.3,0.81,0.4
		c0.4,0.1,0.71,0.21,1.01,0.21c0.4,0,0.6,0,0.81-0.11c0.2-0.1,0.4-0.2,0.5-0.3c0-0.1,0.1-0.3,0.1-0.5c0-0.1-0.1-0.3-0.2-0.4
		c-0.1-0.1-0.3-0.2-0.5-0.3c-0.2-0.1-0.4-0.1-0.6-0.2c-0.2,0-0.5-0.1-0.71-0.2c-0.3,0-0.5-0.1-0.71-0.2c-0.2-0.1-0.3-0.3-0.4-0.5
		c-0.2-0.1-0.2-0.4-0.2-0.71c0-0.3,0-0.5,0.2-0.81c0.1-0.2,0.4-0.4,0.71-0.5c0.3-0.2,0.71-0.2,1.21-0.2c0.3,0,0.6,0,0.91,0.1
		c0.3,0.1,0.6,0.2,0.81,0.3l-0.2,0.71c-0.3-0.2-0.5-0.3-0.81-0.4c-0.2,0-0.5-0.1-0.71-0.1c-0.3,0-0.6,0.1-0.81,0.1
		c-0.2,0.1-0.3,0.2-0.4,0.3c-0.1,0.2-0.2,0.3-0.2,0.5c0,0.2,0.1,0.3,0.2,0.4c0.1,0.2,0.3,0.3,0.5,0.3c0.2,0.1,0.4,0.2,0.6,0.2
		c0.3,0.1,0.5,0.1,0.81,0.2c0.2,0.1,0.4,0.1,0.6,0.3c0.2,0.1,0.4,0.2,0.51,0.4c0.1,0.2,0.2,0.4,0.2,0.71c0,0.3-0.1,0.5-0.31,0.81
		c-0.1,0.21-0.3,0.41-0.71,0.51C333.95,486.35,333.55,486.45,333.04,486.45z"/>
	<path class="st16" d="M337.61,486.3c-0.3,0-0.6,0-0.91-0.1c-0.3-0.2-0.5-0.4-0.6-0.71c-0.2-0.2-0.2-0.6-0.2-1.01v-2.42h0.71v2.32
		c0,0.5,0.1,0.81,0.3,1.01c0.2,0.2,0.5,0.31,0.81,0.31s0.5-0.11,0.71-0.21c0.2-0.1,0.4-0.3,0.5-0.5c0.1-0.2,0.1-0.4,0.1-0.71v-2.22
		h0.81v4.24h-0.71v-1.11l0.1,0.3c-0.2,0.31-0.4,0.51-0.6,0.61C338.31,486.3,338.01,486.3,337.61,486.3z"/>
	<path class="st16" d="M343.06,482.06c0.4,0,0.71,0.1,0.91,0.2c0.3,0.1,0.5,0.3,0.6,0.6c0.2,0.3,0.2,0.6,0.2,1.01v2.42h-0.71v-2.32
		c0-0.4-0.1-0.71-0.3-0.91c-0.2-0.2-0.5-0.3-0.81-0.3s-0.5,0-0.71,0.1c-0.2,0.1-0.4,0.3-0.5,0.5c-0.1,0.2-0.1,0.5-0.1,0.81v2.12
		h-0.81v-4.24h0.71v1.21l-0.1-0.3c0.1-0.3,0.3-0.5,0.6-0.71C342.36,482.16,342.66,482.06,343.06,482.06z"/>
	<line class="st17" x1="34.99" y1="508.09" x2="95.31" y2="508.09"/>
</g>
<g>
	<defs>
		<rect id="SVGID_29_" x="-25.39" y="-5.67" width="475.44" height="615.76"/>
	</defs>
	<clipPath id="SVGID_30_">
		<use xlink:href="#SVGID_29_"  style="overflow:visible;"/>
	</clipPath>
	<line class="st18" x1="34.99" y1="528.44" x2="95.31" y2="528.44"/>
</g>
<g>
	<defs>
		<rect id="SVGID_31_" x="-25.39" y="-5.67" width="475.44" height="615.76"/>
	</defs>
	<clipPath id="SVGID_32_">
		<use xlink:href="#SVGID_31_"  style="overflow:visible;"/>
	</clipPath>
	<line class="st19" x1="34.99" y1="548.14" x2="95.31" y2="548.14"/>
</g>
<rect x="119.96" y="238" class="st20" width="8.01" height="7.69"/>
<rect x="155.6" y="238" class="st20" width="8.01" height="7.69"/>
<rect x="191.25" y="238" class="st20" width="8.01" height="7.69"/>
<rect x="226.89" y="238" class="st20" width="8.01" height="7.69"/>
<rect x="262.54" y="238" class="st20" width="8.01" height="7.69"/>
<rect x="298.19" y="238" class="st20" width="8.01" height="7.69"/>
<rect x="333.83" y="238" class="st20" width="8.01" height="7.69"/>
<rect x="119.96" y="258.7" class="st20" width="8.01" height="7.69"/>
<rect x="155.6" y="258.7" class="st20" width="8.01" height="7.69"/>
<rect x="191.25" y="258.7" class="st20" width="8.01" height="7.69"/>
<rect x="262.54" y="258.7" class="st20" width="8.01" height="7.69"/>
<rect x="298.19" y="258.7" class="st20" width="8.01" height="7.69"/>
<rect x="333.83" y="258.7" class="st20" width="8.01" height="7.69"/>
<rect x="226.89" y="258.7" class="st20" width="8.01" height="7.69"/>
<rect x="119.96" y="279.53" class="st20" width="8.01" height="7.69"/>
<rect x="155.6" y="279.53" class="st20" width="8.01" height="7.69"/>
<rect x="191.25" y="279.53" class="st20" width="8.01" height="7.69"/>
<rect x="262.54" y="279.53" class="st20" width="8.01" height="7.69"/>
<rect x="298.19" y="279.53" class="st20" width="8.01" height="7.69"/>
<rect x="333.83" y="279.53" class="st20" width="8.01" height="7.69"/>
<rect x="226.89" y="279.53" class="st20" width="8.01" height="7.69"/>
<rect x="119.96" y="300.36" class="st20" width="8.01" height="7.69"/>
<rect x="155.6" y="300.36" class="st20" width="8.01" height="7.69"/>
<rect x="191.25" y="300.36" class="st20" width="8.01" height="7.69"/>
<rect x="262.54" y="300.36" class="st20" width="8.01" height="7.69"/>
<rect x="298.19" y="300.36" class="st20" width="8.01" height="7.69"/>
<rect x="333.83" y="300.36" class="st20" width="8.01" height="7.69"/>
<rect x="226.89" y="300.36" class="st20" width="8.01" height="7.69"/>
<rect x="119.96" y="369.81" class="st20" width="8.01" height="7.69"/>
<rect x="155.6" y="369.81" class="st20" width="8.01" height="7.69"/>
<rect x="191.25" y="369.81" class="st20" width="8.01" height="7.69"/>
<rect x="226.89" y="369.81" class="st20" width="8.01" height="7.69"/>
<rect x="262.54" y="369.81" class="st20" width="8.01" height="7.69"/>
<rect x="298.19" y="369.81" class="st20" width="8.01" height="7.69"/>
<rect x="333.83" y="369.81" class="st20" width="8.01" height="7.69"/>
<rect x="119.96" y="390.51" class="st20" width="8.01" height="7.69"/>
<rect x="155.6" y="390.51" class="st20" width="8.01" height="7.69"/>
<rect x="191.25" y="390.51" class="st20" width="8.01" height="7.69"/>
<rect x="262.54" y="390.51" class="st20" width="8.01" height="7.69"/>
<rect x="298.19" y="390.51" class="st20" width="8.01" height="7.69"/>
<rect x="333.83" y="390.51" class="st20" width="8.01" height="7.69"/>
<rect x="226.89" y="390.51" class="st20" width="8.01" height="7.69"/>
<rect x="119.96" y="411.34" class="st20" width="8.01" height="7.69"/>
<rect x="155.6" y="411.34" class="st20" width="8.01" height="7.69"/>
<rect x="191.25" y="411.34" class="st20" width="8.01" height="7.69"/>
<rect x="262.54" y="411.34" class="st20" width="8.01" height="7.69"/>
<rect x="298.19" y="411.34" class="st20" width="8.01" height="7.69"/>
<rect x="333.83" y="411.34" class="st20" width="8.01" height="7.69"/>
<rect x="226.89" y="411.34" class="st20" width="8.01" height="7.69"/>
<rect x="119.96" y="432.18" class="st20" width="8.01" height="7.69"/>
<rect x="155.6" y="432.18" class="st20" width="8.01" height="7.69"/>
<rect x="191.25" y="432.18" class="st20" width="8.01" height="7.69"/>
<rect x="262.54" y="432.18" class="st20" width="8.01" height="7.69"/>
<rect x="298.19" y="432.18" class="st20" width="8.01" height="7.69"/>
<rect x="333.83" y="432.18" class="st20" width="8.01" height="7.69"/>
<rect x="226.89" y="432.18" class="st20" width="8.01" height="7.69"/>
<rect x="119.96" y="501.62" class="st20" width="8.01" height="7.69"/>
<rect x="155.6" y="501.62" class="st20" width="8.01" height="7.69"/>
<rect x="191.25" y="501.62" class="st20" width="8.01" height="7.69"/>
<rect x="226.89" y="501.62" class="st20" width="8.01" height="7.69"/>
<rect x="262.54" y="501.62" class="st20" width="8.01" height="7.69"/>
<rect x="298.19" y="501.62" class="st20" width="8.01" height="7.69"/>
<rect x="333.83" y="501.62" class="st20" width="8.01" height="7.69"/>
<rect x="119.96" y="522.32" class="st20" width="8.01" height="7.69"/>
<rect x="155.6" y="522.32" class="st20" width="8.01" height="7.69"/>
<rect x="191.25" y="522.32" class="st20" width="8.01" height="7.69"/>
<rect x="262.54" y="522.32" class="st20" width="8.01" height="7.69"/>
<rect x="298.19" y="522.32" class="st20" width="8.01" height="7.69"/>
<rect x="333.83" y="522.32" class="st20" width="8.01" height="7.69"/>
<rect x="226.89" y="522.32" class="st20" width="8.01" height="7.69"/>
<rect x="119.96" y="543.15" class="st20" width="8.01" height="7.69"/>
<rect x="155.6" y="543.15" class="st20" width="8.01" height="7.69"/>
<rect x="191.25" y="543.15" class="st20" width="8.01" height="7.69"/>
<rect x="262.54" y="543.15" class="st20" width="8.01" height="7.69"/>
<rect x="298.19" y="543.15" class="st20" width="8.01" height="7.69"/>
<rect x="333.83" y="543.15" class="st20" width="8.01" height="7.69"/>
<rect x="226.89" y="543.15" class="st20" width="8.01" height="7.69"/>
<rect x="119.96" y="563.99" class="st20" width="8.01" height="7.69"/>
<rect x="155.6" y="563.99" class="st20" width="8.01" height="7.69"/>
<rect x="191.25" y="563.99" class="st20" width="8.01" height="7.69"/>
<rect x="262.54" y="563.99" class="st20" width="8.01" height="7.69"/>
<rect x="298.19" y="563.99" class="st20" width="8.01" height="7.69"/>
<rect x="333.83" y="563.99" class="st20" width="8.01" height="7.69"/>
<rect x="226.89" y="563.99" class="st20" width="8.01" height="7.69"/>
<rect x="119.96" y="103.36" class="st20" width="8.01" height="7.69"/>
<rect x="155.6" y="103.36" class="st20" width="8.01" height="7.69"/>
<rect x="191.25" y="103.36" class="st20" width="8.01" height="7.69"/>
<rect x="226.89" y="103.36" class="st20" width="8.01" height="7.69"/>
<rect x="262.54" y="103.36" class="st20" width="8.01" height="7.69"/>
<rect x="298.19" y="103.36" class="st20" width="8.01" height="7.69"/>
<rect x="333.83" y="103.36" class="st20" width="8.01" height="7.69"/>
<rect x="119.96" y="124.05" class="st20" width="8.01" height="7.69"/>
<rect x="155.6" y="124.05" class="st20" width="8.01" height="7.69"/>
<rect x="191.25" y="124.05" class="st20" width="8.01" height="7.69"/>
<rect x="262.54" y="124.05" class="st20" width="8.01" height="7.69"/>
<rect x="298.19" y="124.05" class="st20" width="8.01" height="7.69"/>
<rect x="333.83" y="124.05" class="st20" width="8.01" height="7.69"/>
<rect x="226.89" y="124.05" class="st20" width="8.01" height="7.69"/>
<rect x="119.96" y="144.88" class="st20" width="8.01" height="7.69"/>
<rect x="155.6" y="144.88" class="st20" width="8.01" height="7.69"/>
<rect x="191.25" y="144.88" class="st20" width="8.01" height="7.69"/>
<rect x="262.54" y="144.88" class="st20" width="8.01" height="7.69"/>
<rect x="298.19" y="144.88" class="st20" width="8.01" height="7.69"/>
<rect x="333.83" y="144.88" class="st20" width="8.01" height="7.69"/>
<rect x="226.89" y="144.88" class="st20" width="8.01" height="7.69"/>
<rect x="119.96" y="165.72" class="st20" width="8.01" height="7.69"/>
<rect x="155.6" y="165.72" class="st20" width="8.01" height="7.69"/>
<rect x="191.25" y="165.72" class="st20" width="8.01" height="7.69"/>
<rect x="262.54" y="165.72" class="st20" width="8.01" height="7.69"/>
<rect x="298.19" y="165.72" class="st20" width="8.01" height="7.69"/>
<rect x="333.83" y="165.72" class="st20" width="8.01" height="7.69"/>
<rect x="226.89" y="165.72" class="st20" width="8.01" height="7.69"/>
<path class="st21" d="M95.29,548.08"/>
<path class="st21" d="M34.97,548.08"/>
<line class="st21" x1="34.97" y1="568.44" x2="95.29" y2="568.44"/>
<polygon class="st20" points="376.91,100.36 378.66,103.86 382.53,104.44 379.74,107.19 380.38,111.05 376.91,109.24 373.44,111.05 
	374.08,107.19 371.29,104.44 375.16,103.86 "/>
<polygon class="st20" points="376.91,121.05 378.66,124.56 382.53,125.14 379.74,127.88 380.38,131.74 376.91,129.93 373.44,131.74 
	374.08,127.88 371.29,125.14 375.16,124.56 "/>
<polygon class="st20" points="376.91,141.89 378.66,145.39 382.53,145.97 379.74,148.71 380.38,152.57 376.91,150.77 373.44,152.57 
	374.08,148.71 371.29,145.97 375.16,145.39 "/>
<polygon class="st20" points="376.91,162.72 378.66,166.23 382.53,166.81 379.74,169.55 380.38,173.41 376.91,171.6 373.44,173.41 
	374.08,169.55 371.29,166.81 375.16,166.23 "/>
<polygon class="st20" points="376.91,235.94 378.66,239.45 382.53,240.03 379.74,242.77 380.38,246.63 376.91,244.82 373.44,246.63 
	374.08,242.77 371.29,240.03 375.16,239.45 "/>
<polygon class="st20" points="376.91,256.64 378.66,260.14 382.53,260.72 379.74,263.46 380.38,267.32 376.91,265.52 373.44,267.32 
	374.08,263.46 371.29,260.72 375.16,260.14 "/>
<polygon class="st20" points="376.91,277.47 378.66,280.97 382.53,281.55 379.74,284.3 380.38,288.16 376.91,286.35 373.44,288.16 
	374.08,284.3 371.29,281.55 375.16,280.97 "/>
<polygon class="st20" points="376.91,298.31 378.66,301.81 382.53,302.39 379.74,305.13 380.38,308.99 376.91,307.19 373.44,308.99 
	374.08,305.13 371.29,302.39 375.16,301.81 "/>
<polygon class="st20" points="376.91,366.82 378.66,370.32 382.53,370.9 379.74,373.64 380.38,377.5 376.91,375.7 373.44,377.5 
	374.08,373.64 371.29,370.9 375.16,370.32 "/>
<polygon class="st20" points="376.91,387.51 378.66,391.01 382.53,391.59 379.74,394.34 380.38,398.2 376.91,396.39 373.44,398.2 
	374.08,394.34 371.29,391.59 375.16,391.01 "/>
<polygon class="st20" points="376.91,408.35 378.66,411.85 382.53,412.43 379.74,415.17 380.38,419.03 376.91,417.23 373.44,419.03 
	374.08,415.17 371.29,412.43 375.16,411.85 "/>
<polygon class="st20" points="376.91,429.18 378.66,432.68 382.53,433.26 379.74,436.01 380.38,439.87 376.91,438.06 373.44,439.87 
	374.08,436.01 371.29,433.26 375.16,432.68 "/>
<polygon class="st20" points="376.91,498.63 378.66,502.13 382.53,502.71 379.74,505.45 380.38,509.32 376.91,507.51 373.44,509.32 
	374.08,505.45 371.29,502.71 375.16,502.13 "/>
<polygon class="st20" points="376.91,519.32 378.66,522.82 382.53,523.4 379.74,526.15 380.38,530.01 376.91,528.2 373.44,530.01 
	374.08,526.15 371.29,523.4 375.16,522.82 "/>
<polygon class="st20" points="376.91,540.16 378.66,543.66 382.53,544.24 379.74,546.98 380.38,550.84 376.91,549.04 373.44,550.84 
	374.08,546.98 371.29,544.24 375.16,543.66 "/>
<polygon class="st20" points="376.91,560.99 378.66,564.49 382.53,565.07 379.74,567.82 380.38,571.68 376.91,569.87 373.44,571.68 
	374.08,567.82 371.29,565.07 375.16,564.49 "/>
</svg>
